<svg width="87" height="97" viewBox="0 0 87 97" fill="none" xmlns="http://www.w3.org/2000/svg">
    <path d="M20 11H64C64.2652 11 64.5196 10.8946 64.7071 10.7071C64.8946 10.5196 65 10.2652 65 10C65 9.73478 64.8946 9.48043 64.7071 9.29289C64.5196 9.10536 64.2652 9 64 9H20C19.7348 9 19.4804 9.10536 19.2929 9.29289C19.1054 9.48043 19 9.73478 19 10C19 10.2652 19.1054 10.5196 19.2929 10.7071C19.4804 10.8946 19.7348 11 20 11Z" fill="#8CAAF3"/>
    <path d="M20 17H64C64.2652 17 64.5196 16.8946 64.7071 16.7071C64.8946 16.5196 65 16.2652 65 16C65 15.7348 64.8946 15.4804 64.7071 15.2929C64.5196 15.1054 64.2652 15 64 15H20C19.7348 15 19.4804 15.1054 19.2929 15.2929C19.1054 15.4804 19 15.7348 19 16C19 16.2652 19.1054 16.5196 19.2929 16.7071C19.4804 16.8946 19.7348 17 20 17Z" fill="#8CAAF3"/>
    <path d="M20 27H64C64.2652 27 64.5196 26.8946 64.7071 26.7071C64.8946 26.5196 65 26.2652 65 26C65 25.7348 64.8946 25.4804 64.7071 25.2929C64.5196 25.1054 64.2652 25 64 25H20C19.7348 25 19.4804 25.1054 19.2929 25.2929C19.1054 25.4804 19 25.7348 19 26C19 26.2652 19.1054 26.5196 19.2929 26.7071C19.4804 26.8946 19.7348 27 20 27Z" fill="#8CAAF3"/>
    <path d="M20 33H64C64.2652 33 64.5196 32.8946 64.7071 32.7071C64.8946 32.5196 65 32.2652 65 32C65 31.7348 64.8946 31.4804 64.7071 31.2929C64.5196 31.1054 64.2652 31 64 31H20C19.7348 31 19.4804 31.1054 19.2929 31.2929C19.1054 31.4804 19 31.7348 19 32C19 32.2652 19.1054 32.5196 19.2929 32.7071C19.4804 32.8946 19.7348 33 20 33Z" fill="#8CAAF3"/>
    <path d="M20 39H42C42.2652 39 42.5196 38.8946 42.7071 38.7071C42.8946 38.5196 43 38.2652 43 38C43 37.7348 42.8946 37.4804 42.7071 37.2929C42.5196 37.1054 42.2652 37 42 37H20C19.7348 37 19.4804 37.1054 19.2929 37.2929C19.1054 37.4804 19 37.7348 19 38C19 38.2652 19.1054 38.5196 19.2929 38.7071C19.4804 38.8946 19.7348 39 20 39Z" fill="#8CAAF3"/>
    <path d="M20 51H30C30.2652 51 30.5196 50.8946 30.7071 50.7071C30.8946 50.5196 31 50.2652 31 50C31 49.7348 30.8946 49.4804 30.7071 49.2929C30.5196 49.1054 30.2652 49 30 49H20C19.7348 49 19.4804 49.1054 19.2929 49.2929C19.1054 49.4804 19 49.7348 19 50C19 50.2652 19.1054 50.5196 19.2929 50.7071C19.4804 50.8946 19.7348 51 20 51Z" fill="#8CAAF3"/>
    <path d="M64 49H48C47.7348 49 47.4804 49.1054 47.2929 49.2929C47.1054 49.4804 47 49.7348 47 50C47 50.2652 47.1054 50.5196 47.2929 50.7071C47.4804 50.8946 47.7348 51 48 51H64C64.2652 51 64.5196 50.8946 64.7071 50.7071C64.8946 50.5196 65 50.2652 65 50C65 49.7348 64.8946 49.4804 64.7071 49.2929C64.5196 49.1054 64.2652 49 64 49Z" fill="#8CAAF3"/>
    <path d="M28.37 92V96C28.37 96.2652 28.4754 96.5196 28.6629 96.7071C28.8504 96.8946 29.1048 97 29.37 97C29.6352 97 29.8896 96.8946 30.0771 96.7071C30.2646 96.5196 30.37 96.2652 30.37 96V91C30.37 90.7348 30.2646 90.4804 30.0771 90.2929C29.8896 90.1054 29.6352 90 29.37 90H27.18L27.93 85.53C31.54 82.43 33.31 77.67 33 72H52.94C52.83 76.7 55 81.62 59 85.43V90H58C57.7348 90 57.4804 90.1054 57.2929 90.2929C57.1054 90.4804 57 90.7348 57 91V96C57 96.2652 57.1054 96.5196 57.2929 96.7071C57.4804 96.8946 57.7348 97 58 97C58.2652 97 58.5196 96.8946 58.7071 96.7071C58.8946 96.5196 59 96.2652 59 96V92H85V96C85 96.2652 85.1054 96.5196 85.2929 96.7071C85.4804 96.8946 85.7348 97 86 97C86.2652 97 86.5196 96.8946 86.7071 96.7071C86.8946 96.5196 87 96.2652 87 96V91C87 90.7348 86.8946 90.4804 86.7071 90.2929C86.5196 90.1054 86.2652 90 86 90H85L84.1 60.42C84.072 59.5047 83.8348 58.608 83.4066 57.7985C82.9785 56.9891 82.3708 56.2883 81.63 55.75L73 49.49V1C73 0.734784 72.8946 0.48043 72.7071 0.292893C72.5196 0.105357 72.2652 0 72 0L12 0C11.7348 0 11.4804 0.105357 11.2929 0.292893C11.1054 0.48043 11 0.734784 11 1V49.59L3.75 56.83C2.63057 57.9533 2.00139 59.4741 2 61.06V90H1C0.734784 90 0.48043 90.1054 0.292893 90.2929C0.105357 90.4804 0 90.7348 0 91L0 96C0 96.2652 0.105357 96.5196 0.292893 96.7071C0.48043 96.8946 0.734784 97 1 97C1.26522 97 1.51957 96.8946 1.70711 96.7071C1.89464 96.5196 2 96.2652 2 96V92H28.37ZM80.43 57.37C80.924 57.7282 81.3296 58.1947 81.6156 58.7337C81.9015 59.2728 82.0604 59.8701 82.08 60.48L83 90H61V85C60.9996 84.8629 60.9709 84.7273 60.9159 84.6017C60.8608 84.4762 60.7805 84.3632 60.68 84.27C56.92 80.79 54.82 76.27 54.94 72H62.86C62.22 77.91 64.29 82.68 68.54 84.89C68.7721 84.9901 69.0335 84.9987 69.2716 84.9139C69.5097 84.8291 69.7069 84.6573 69.8235 84.433C69.94 84.2087 69.9674 83.9486 69.8999 83.705C69.8325 83.4614 69.6753 83.2524 69.46 83.12C65.74 81.18 64.07 76.72 64.98 71.17C64.9915 71.114 64.9982 71.0571 65 71C64.9955 70.8868 64.9719 70.7752 64.93 70.67V70.61C64.883 70.5066 64.8188 70.4119 64.74 70.33C64.74 70.33 58.59 64.21 57.25 62.84C56.8734 62.4701 56.5755 62.0278 56.3744 61.5397C56.1734 61.0516 56.0732 60.5278 56.08 60C56.0943 59.5628 56.1995 59.1335 56.3889 58.7392C56.5783 58.3449 56.8477 57.9944 57.18 57.71C59.24 55.83 61.78 58.1 62.78 59.16C63.45 59.87 66.38 63.22 71.25 68.85L76.25 74.63C76.3346 74.7338 76.4392 74.8196 76.5576 74.8822C76.6759 74.9448 76.8057 74.983 76.9391 74.9946C77.0725 75.0061 77.2069 74.9907 77.3342 74.9493C77.4616 74.9079 77.5794 74.8414 77.6805 74.7536C77.7817 74.6659 77.8642 74.5587 77.9231 74.4385C77.9821 74.3182 78.0163 74.1874 78.0237 74.0536C78.0311 73.9199 78.0116 73.7861 77.9663 73.6601C77.921 73.534 77.8508 73.4184 77.76 73.32L73 67.85V52L80.43 57.37ZM13 2H71V65.54C67.11 61.06 64.84 58.46 64.23 57.82C61.35 54.76 58.13 54.16 55.83 56.27C55.2968 56.7374 54.8661 57.3101 54.5649 57.952C54.2637 58.5939 54.0986 59.2912 54.08 60C54.0707 61.5802 54.6852 63.1002 55.79 64.23C56.68 65.14 59.66 68.11 61.58 70.03H24.26C26.26 67.83 29.56 64.15 30.26 63.12C32.32 60.29 32.26 57.54 30.09 55.76C27.09 53.3 23.66 55.15 22.19 56.89C21.77 57.39 17.19 62.44 12.95 67.13L13 2ZM4 61.07C4.00181 60.0123 4.42249 58.9983 5.17 58.25L11 52.41V69.31L8.26 72.31C8.1627 72.4054 8.08594 72.5198 8.03443 72.646C7.98293 72.7722 7.95777 72.9076 7.96049 73.0439C7.96322 73.1801 7.99378 73.3144 8.05029 73.4385C8.1068 73.5625 8.18807 73.6737 8.28912 73.7652C8.39016 73.8566 8.50884 73.9265 8.63786 73.9705C8.76689 74.0144 8.90353 74.0315 9.03941 74.0207C9.17529 74.0099 9.30753 73.9715 9.428 73.9077C9.54848 73.844 9.65465 73.7563 9.74 73.65C10.28 73.05 23 59.03 23.74 58.12C23.74 58.12 26.33 55.19 28.84 57.25C30.5 58.61 29.66 60.53 28.67 61.89C27.87 62.99 23.46 67.89 21.24 70.3C21.1767 70.4067 21.1133 70.5133 21.05 70.62C21.044 70.6832 21.044 70.7468 21.05 70.81C21.0267 70.8714 21.01 70.9351 21 71C21.43 77.31 20.87 80.73 16.53 83.05C16.3152 83.1844 16.1595 83.3953 16.0942 83.6401C16.029 83.8849 16.059 84.1453 16.1784 84.3688C16.2978 84.5923 16.4975 84.7621 16.7372 84.844C16.977 84.9259 17.2389 84.9137 17.47 84.81C22.89 82 23.35 77.35 23.06 72H31.06C31.33 77.21 29.7 81.53 26.38 84.22C26.1896 84.3726 26.0616 84.5896 26.02 84.83L25.15 90H4V61.07Z" fill="#8CAAF3"/>
</svg>
