<svg width="48" height="46" viewBox="0 0 48 46" fill="none" xmlns="http://www.w3.org/2000/svg">
    <path d="M17 44H2C1.46957 44 0.960859 43.7893 0.585786 43.4142C0.210714 43.0391 0 42.5304 0 42V2C0 1.46957 0.210714 0.960859 0.585786 0.585786C0.960859 0.210714 1.46957 0 2 0L38 0C38.5304 0 39.0391 0.210714 39.4142 0.585786C39.7893 0.960859 40 1.46957 40 2V25C40 25.5304 39.7893 26.0391 39.4142 26.4142C39.0391 26.7893 38.5304 27 38 27C37.4696 27 36.9609 26.7893 36.5858 26.4142C36.2107 26.0391 36 25.5304 36 25V4H4V40H17C17.5304 40 18.0391 40.2107 18.4142 40.5858C18.7893 40.9609 19 41.4696 19 42C19 42.5304 18.7893 43.0391 18.4142 43.4142C18.0391 43.7893 17.5304 44 17 44Z" fill="#8CAAF3"/>
    <path d="M28 14H12C11.4696 14 10.9609 13.7893 10.5858 13.4142C10.2107 13.0391 10 12.5304 10 12C10 11.4696 10.2107 10.9609 10.5858 10.5858C10.9609 10.2107 11.4696 10 12 10H28C28.5304 10 29.0391 10.2107 29.4142 10.5858C29.7893 10.9609 30 11.4696 30 12C30 12.5304 29.7893 13.0391 29.4142 13.4142C29.0391 13.7893 28.5304 14 28 14Z" fill="#8CAAF3"/>
    <path d="M28 23H12C11.4696 23 10.9609 22.7893 10.5858 22.4142C10.2107 22.0391 10 21.5304 10 21C10 20.4696 10.2107 19.9609 10.5858 19.5858C10.9609 19.2107 11.4696 19 12 19H28C28.5304 19 29.0391 19.2107 29.4142 19.5858C29.7893 19.9609 30 20.4696 30 21C30 21.5304 29.7893 22.0391 29.4142 22.4142C29.0391 22.7893 28.5304 23 28 23Z" fill="#8CAAF3"/>
    <path d="M17 32H12C11.4696 32 10.9609 31.7893 10.5858 31.4142C10.2107 31.0391 10 30.5304 10 30C10 29.4696 10.2107 28.9609 10.5858 28.5858C10.9609 28.2107 11.4696 28 12 28H17C17.5304 28 18.0391 28.2107 18.4142 28.5858C18.7893 28.9609 19 29.4696 19 30C19 30.5304 18.7893 31.0391 18.4142 31.4142C18.0391 31.7893 17.5304 32 17 32Z" fill="#8CAAF3"/>
    <path d="M33.18 46C32.6616 46.0005 32.1633 45.7997 31.79 45.44L23.61 37.57C23.2555 37.1967 23.0586 36.7011 23.0602 36.1864C23.0618 35.6716 23.2619 35.1773 23.6187 34.8062C23.9756 34.4352 24.4617 34.2161 24.976 34.1944C25.4904 34.1728 25.9932 34.3503 26.38 34.69L33 41.08L43.47 28.71C43.8121 28.3042 44.3015 28.0509 44.8303 28.0059C45.3592 27.9609 45.8842 28.1278 46.29 28.47C46.6958 28.8121 46.949 29.3014 46.9941 29.8303C47.0391 30.3591 46.8721 30.8842 46.53 31.29L34.71 45.29C34.5343 45.499 34.3177 45.6698 34.0735 45.7919C33.8293 45.914 33.5626 45.9848 33.29 46H33.18Z" fill="#8CAAF3"/>
</svg>
