<svg width="110" height="78" viewBox="0 0 110 78" fill="none" xmlns="http://www.w3.org/2000/svg">
    <path d="M110 68V0H0V68H46V76H40V78H70V76H64V68H110ZM2 2H108V66H2V2ZM62 76H48V68H62V76Z" fill="#8CAAF3"/>
    <path d="M11 32H41V10H11V32ZM13 12H39V30H13V12Z" fill="#8CAAF3"/>
    <path d="M36 38H12V40H36V38Z" fill="#8CAAF3"/>
    <path d="M36 46H12V48H36V46Z" fill="#8CAAF3"/>
    <path d="M24 54H12V56H24V54Z" fill="#8CAAF3"/>
    <path d="M75.34 46.5801L59.71 30.74L58.29 32.14L75.34 49.42L101.71 22.7001L100.29 21.3L75.34 46.5801Z" fill="#8CAAF3"/>
</svg>
