<svg width="130" height="88" viewBox="0 0 130 88" fill="none" xmlns="http://www.w3.org/2000/svg">
    <path d="M129 28H92V2H94C94.6 2 95 1.6 95 1C95 0.4 94.6 0 94 0H36C35.4 0 35 0.4 35 1C35 1.6 35.4 2 36 2H38V28H1C0.4 28 0 28.4 0 29C0 29.6 0.4 30 1 30H2V87C2 87.6 2.4 88 3 88H127C127.6 88 128 87.6 128 87V30H129C129.6 30 130 29.6 130 29C130 28.4 129.6 28 129 28ZM90 2V86H76V67C76 66.4 75.6 66 75 66H57C56.4 66 56 66.4 56 67V86H40V2H90ZM74 86H58V68H74V86ZM4 30H38V86H4V30ZM126 86H92V30H126V86Z" fill="#8CAAF3"/>
    <path d="M28 36H14C13.4 36 13 36.4 13 37V51C13 51.6 13.4 52 14 52H28C28.6 52 29 51.6 29 51V37C29 36.4 28.6 36 28 36ZM27 50H15V38H27V50Z" fill="#8CAAF3"/>
    <path d="M28 58H14C13.4 58 13 58.4 13 59V77C13 77.6 13.4 78 14 78H28C28.6 78 29 77.6 29 77V59C29 58.4 28.6 58 28 58ZM27 76H15V60H27V76Z" fill="#8CAAF3"/>
    <path d="M103 52H117C117.6 52 118 51.6 118 51V37C118 36.4 117.6 36 117 36H103C102.4 36 102 36.4 102 37V51C102 51.6 102.4 52 103 52ZM104 38H116V50H104V38Z" fill="#8CAAF3"/>
    <path d="M103 78H117C117.6 78 118 77.6 118 77V59C118 58.4 117.6 58 117 58H103C102.4 58 102 58.4 102 59V77C102 77.6 102.4 78 103 78ZM104 60H116V76H104V60Z" fill="#8CAAF3"/>
    <path d="M51 20H59C59.6 20 60 19.6 60 19V11C60 10.4 59.6 10 59 10H51C50.4 10 50 10.4 50 11V19C50 19.6 50.4 20 51 20ZM52 12H58V18H52V12Z" fill="#8CAAF3"/>
    <path d="M71 20H79C79.6 20 80 19.6 80 19V11C80 10.4 79.6 10 79 10H71C70.4 10 70 10.4 70 11V19C70 19.6 70.4 20 71 20ZM72 12H78V18H72V12Z" fill="#8CAAF3"/>
    <path d="M51 38H59C59.6 38 60 37.6 60 37V29C60 28.4 59.6 28 59 28H51C50.4 28 50 28.4 50 29V37C50 37.6 50.4 38 51 38ZM52 30H58V36H52V30Z" fill="#8CAAF3"/>
    <path d="M71 38H79C79.6 38 80 37.6 80 37V29C80 28.4 79.6 28 79 28H71C70.4 28 70 28.4 70 29V37C70 37.6 70.4 38 71 38ZM72 30H78V36H72V30Z" fill="#8CAAF3"/>
    <path d="M51 56H59C59.6 56 60 55.6 60 55V47C60 46.4 59.6 46 59 46H51C50.4 46 50 46.4 50 47V55C50 55.6 50.4 56 51 56ZM52 48H58V54H52V48Z" fill="#8CAAF3"/>
    <path d="M71 56H79C79.6 56 80 55.6 80 55V47C80 46.4 79.6 46 79 46H71C70.4 46 70 46.4 70 47V55C70 55.6 70.4 56 71 56ZM72 48H78V54H72V48Z" fill="#8CAAF3"/>
</svg>
