<svg width="137" height="158" viewBox="0 0 137 158" fill="none" xmlns="http://www.w3.org/2000/svg">
    <path d="M68.5493 79.9976H61.5493C61.2493 79.9976 61.0493 80.1976 61.0493 80.4976V100.998H56.5493C56.2493 100.998 56.0493 101.198 56.0493 101.498C56.0493 101.798 56.2493 101.998 56.5493 101.998H61.0493V106.998H56.5493C56.2493 106.998 56.0493 107.198 56.0493 107.498C56.0493 107.798 56.2493 107.998 56.5493 107.998H61.0493V119.498C61.0493 119.798 61.2493 119.998 61.5493 119.998C61.8493 119.998 62.0493 119.798 62.0493 119.498V107.998H73.5493C73.8493 107.998 74.0493 107.798 74.0493 107.498C74.0493 107.198 73.8493 106.998 73.5493 106.998H62.0493V101.998H68.5493C77.1493 101.998 82.0493 98.1976 82.0493 91.4976C82.0493 84.0976 77.2493 79.9976 68.5493 79.9976ZM68.5493 100.998H62.0493V80.9976H68.5493C76.7493 80.9976 81.0493 84.5976 81.0493 91.4976C81.0493 99.7976 73.2493 100.998 68.5493 100.998Z" fill="white"/>
    <path d="M130.549 91.2974C123.449 74.9974 109.749 57.5974 91.8493 41.9974C94.7493 41.7974 97.0493 39.3974 97.0493 36.4974C97.0493 33.4974 94.5493 30.9974 91.5493 30.9974H90.2493C90.6493 30.3974 91.1493 29.4974 91.8493 28.4974C95.3493 22.9974 101.849 12.6974 103.449 7.89744C104.649 4.39744 103.749 2.49744 102.849 1.59744C101.249 -0.00256431 98.3493 -0.202564 94.8493 0.897436C94.6493 0.997436 94.2493 1.09744 93.7493 1.29744C89.5493 2.79744 76.6493 7.19744 69.3493 7.19744C64.1493 7.19744 55.2493 4.39744 48.7493 2.39744C45.0493 1.29744 42.2493 0.297436 40.6493 0.0974358C38.8493 -0.202564 37.4493 0.197436 36.4493 1.19744C35.1493 2.49744 34.7493 4.89744 35.3493 7.79744C36.0493 11.5974 44.2493 27.3974 46.1493 30.9974H43.5493C40.5493 30.9974 38.0493 33.4974 38.0493 36.4974C38.0493 38.8974 39.5493 40.8974 41.6493 41.6974C36.6493 46.2974 1.64931 79.5974 0.0493137 110.697C-0.450686 121.297 2.84931 130.597 10.0493 138.397C21.3493 150.597 43.3493 157.997 68.0493 157.997C68.8493 157.997 69.6493 157.997 70.5493 157.997C95.7493 157.497 117.249 149.597 128.149 136.797C137.849 125.397 138.649 109.697 130.549 91.2974ZM36.2493 7.59744C35.7493 4.99744 36.0493 2.99744 37.1493 1.89744C37.9493 1.09744 39.0493 0.797436 40.5493 1.09744C42.0493 1.29744 45.0493 2.29744 48.5493 3.39744C55.0493 5.39744 64.0493 8.19744 69.3493 8.19744C76.7493 8.19744 89.7493 3.69744 94.0493 2.19744C94.5493 1.99744 94.8493 1.89744 95.1493 1.79744C98.2493 0.797436 100.849 0.897436 102.149 2.19744C103.249 3.29744 103.349 5.09744 102.549 7.49744C100.949 12.2974 94.4493 22.4974 91.0493 27.9974C90.1493 29.4974 89.4493 30.4974 89.1493 30.9974H47.2493C46.0493 28.6974 36.9493 11.4974 36.2493 7.59744ZM39.0493 36.4974C39.0493 33.9974 41.0493 31.9974 43.5493 31.9974H91.5493C94.0493 31.9974 96.0493 33.9974 96.0493 36.4974C96.0493 38.9974 94.0493 40.9974 91.5493 40.9974H43.5493C41.0493 40.9974 39.0493 38.9974 39.0493 36.4974ZM127.349 136.097C116.649 148.697 95.3493 156.497 70.5493 156.997C45.1493 157.497 22.3493 150.097 10.8493 137.697C3.84931 130.097 0.549314 120.997 1.04931 110.697C2.64931 78.4974 40.8493 43.6974 42.7493 41.8974C42.9493 41.8974 43.2493 41.9974 43.4493 41.9974H90.2493C122.949 70.0974 148.349 111.497 127.349 136.097Z" fill="white"/>
    <path d="M68.5493 62.9976C48.4493 62.9976 32.0493 79.3976 32.0493 99.4976C32.0493 119.598 48.4493 135.998 68.5493 135.998C88.6493 135.998 105.049 119.598 105.049 99.4976C105.049 79.3976 88.6493 62.9976 68.5493 62.9976ZM68.5493 134.998C48.9493 134.998 33.0493 119.098 33.0493 99.4976C33.0493 79.8976 48.9493 63.9976 68.5493 63.9976C88.1493 63.9976 104.049 79.8976 104.049 99.4976C104.049 119.098 88.1493 134.998 68.5493 134.998Z" fill="white"/>
</svg>
