<svg width="180" height="146" viewBox="0 0 180 146" fill="none" xmlns="http://www.w3.org/2000/svg">
    <path d="M41.35 136.3C44.75 136.3 47.55 133.5 47.55 130C47.55 126.5 44.75 123.7 41.35 123.7C37.95 123.7 35.15 126.5 35.15 130C35.15 133.5 37.95 136.3 41.35 136.3ZM41.35 124.8C44.25 124.8 46.55 127.2 46.55 130.1C46.55 133 44.15 135.4 41.35 135.4C38.55 135.4 36.15 133 36.15 130.1C36.15 127.2 38.45 124.8 41.35 124.8Z" fill="white"/>
    <path d="M138.45 0C128.55 0 119.55 3.6 112.45 9.4C111.65 9.3 92.65 6.8 87.75 6.1C83.75 5.5 80.15 7.6 75.85 11.1C71.85 14.4 59.85 24.5 56.55 27.3C53.15 30.2 47.45 35.1 45.75 39.6C44.25 43.8 33.95 76.8 33.25 79.2L20.25 91.4L17.75 88.9C16.85 88 15.75 87.6 14.55 87.6C13.35 87.6 12.15 88.1 11.35 88.9L1.35 98.9C-0.45 100.7 -0.45 103.6 1.35 105.4L39.65 143.8C40.55 144.7 41.65 145.1 42.85 145.1C44.05 145.1 45.25 144.6 46.05 143.8L56.05 133.8C57.85 132 57.85 129.1 56.05 127.3L54.15 125.4C54.65 125 55.05 124.6 55.55 124.1C58.75 121.2 61.95 118.2 67.45 116.8C73.55 115.3 90.45 110.1 95.55 104.1C99.45 99.5 103.25 94.8 106.25 91.1C108.65 88.1 110.55 85.8 111.55 84.7C113.75 82.3 116.35 79.5 119.45 76.3C119.45 76.3 119.45 76.3 119.55 76.3C125.35 79.4 131.95 81.1 138.65 81.1C160.95 81.1 179.15 62.9 179.15 40.6C179.15 18.3 160.75 0 138.45 0ZM55.25 133L45.25 143C43.95 144.3 41.55 144.3 40.25 143L1.95 104.6C0.55 103.2 0.55 100.9 1.95 99.6L11.95 89.6C12.65 88.9 13.55 88.6 14.45 88.6C15.45 88.6 16.25 89 16.95 89.6L55.25 128C56.65 129.3 56.65 131.6 55.25 133ZM110.65 83.9C109.65 85 107.75 87.4 105.35 90.4C102.35 94.1 98.65 98.8 94.65 103.4C89.85 109.1 72.75 114.3 67.15 115.7C61.45 117.1 57.95 120.4 54.85 123.2C54.35 123.6 53.85 124.1 53.45 124.5L20.95 92.1L34.15 79.8C34.25 79.7 34.25 79.7 34.25 79.6C34.35 79.2 45.15 44.2 46.75 39.9C48.35 35.7 53.95 30.9 57.25 28C60.45 25.2 72.45 15.1 76.45 11.8C80.65 8.4 83.95 6.5 87.55 7C90.05 7.4 96.55 8.3 101.65 8.9C107.35 9.7 110.05 10 111.35 10.2C106.25 15 102.15 21.1 99.95 28L89.25 29.4C89.15 29.4 89.05 29.4 89.05 29.5L77.35 38.4C76.65 38.9 76.25 39.8 76.35 40.7L79.05 66.7C79.05 66.8 79.05 66.8 79.05 66.9C80.55 69.9 82.45 71.7 84.75 72.2C88.25 72.9 91.65 70.4 92.55 69.6C93.15 69.1 94.05 68.1 95.35 66.6C97.85 63.9 101.65 59.8 105.45 56.6C110.75 52.1 121.85 47.3 129.85 47.3C133.85 47.3 135.55 49.4 136.25 51.1C137.05 53 136.95 55.5 136.15 57.3C134.65 55.7 129.95 51.8 123.05 56.5C117.95 60 115.15 67 116.75 69.5C117.95 71.3 119.85 72.4 120.85 72.9C116.75 77.2 113.35 80.9 110.65 83.9ZM99.55 29.1C98.45 32.7 97.95 36.6 97.95 40.5C97.95 46.8 99.35 52.8 102.15 58.4C99.35 61.1 96.65 63.9 94.75 66C93.45 67.4 92.55 68.4 91.95 68.9C91.15 69.6 88.05 72 85.05 71.3C83.05 70.9 81.35 69.3 80.05 66.6L77.35 40.7C77.25 40.2 77.55 39.7 77.95 39.3L89.55 30.5L99.55 29.1ZM121.65 72.3C120.85 72 118.85 70.9 117.65 69.1C116.55 67.4 118.65 61 123.65 57.5C130.45 52.8 134.75 57.2 135.75 58.4C135.55 58.7 135.35 59 135.15 59.2C130.05 64 125.55 68.4 121.65 72.3ZM138.45 80C132.05 80 125.65 78.4 120.05 75.4C120.75 74.7 121.45 74 122.15 73.3C122.15 73.3 122.15 73.3 122.25 73.2C126.15 69.2 130.75 64.7 135.95 59.8C136.35 59.4 136.65 59 136.85 58.6L136.95 58.5C138.15 56.4 138.45 53.3 137.45 50.9C137.35 50.7 137.25 50.4 137.05 50.1H146.55C146.85 50.1 147.05 49.9 147.05 49.6C147.05 49.3 146.85 49.1 146.55 49.1H136.35C135.85 48.4 135.05 47.7 134.05 47.2V43H141.55C150.35 43 155.05 38.7 155.05 30.5C155.05 22.1 150.35 18 140.55 18H133.55C133.25 18 133.05 18.2 133.05 18.5V42H127.55C127.25 42 127.05 42.2 127.05 42.5C127.05 42.8 127.25 43 127.55 43H133.05V46.7C132.25 46.4 131.25 46.3 130.15 46.3C121.95 46.3 110.55 51.2 105.15 55.8C104.45 56.4 103.75 57 103.05 57.6C100.45 52.2 99.15 46.5 99.15 40.4C98.95 18.7 116.65 1 138.45 1C160.25 1 177.95 18.7 177.95 40.5C177.95 62.3 160.25 80 138.45 80ZM133.95 42V19H140.45C149.55 19 153.95 22.8 153.95 30.5C153.95 38.1 149.75 42 141.45 42H133.95Z" fill="white"/>
</svg>
