<svg width="142" height="149" viewBox="0 0 142 149" fill="none" xmlns="http://www.w3.org/2000/svg">
    <path d="M11.5 42H48.5C48.8 42 49 41.8 49 41.5C49 41.2 48.8 41 48.5 41H11.5C11.2 41 11 41.2 11 41.5C11 41.8 11.2 42 11.5 42Z" fill="white"/>
    <path d="M11.5 56H56.5C56.8 56 57 55.8 57 55.5C57 55.2 56.8 55 56.5 55H11.5C11.2 55 11 55.2 11 55.5C11 55.8 11.2 56 11.5 56Z" fill="white"/>
    <path d="M11.5 71H95.5C95.8 71 96 70.8 96 70.5C96 70.2 95.8 70 95.5 70H11.5C11.2 70 11 70.2 11 70.5C11 70.8 11.2 71 11.5 71Z" fill="white"/>
    <path d="M54.5 112H11.5C11.2 112 11 112.2 11 112.5C11 112.8 11.2 113 11.5 113H54.5C54.8 113 55 112.8 55 112.5C55 112.2 54.8 112 54.5 112Z" fill="white"/>
    <path d="M66.5 56H94.5C94.8 56 95 55.8 95 55.5C95 55.2 94.8 55 94.5 55H66.5C66.2 55 66 55.2 66 55.5C66 55.8 66.2 56 66.5 56Z" fill="white"/>
    <path d="M140.7 58.7L138.4 57.4L141.7 51.7C142.3 50.7 141.9 49.4 140.9 48.9L138.2 47.3C137.7 47 137.2 46.9 136.6 47.1C136.1 47.2 135.6 47.6 135.3 48.1L132 53.8L130.4 52.9C129.9 52.6 129.4 52.5 128.8 52.7C128.3 52.8 127.8 53.2 127.5 53.7L124 59.8L120.5 65.9L111 82.7V40.5C111 40.4 111 40.4 111 40.3C111 40.2 110.9 40.2 110.9 40.1L70 0.1C69.9 0.1 69.8 0 69.6 0H5.2C2.3 0 0 2.3 0 5.2V143.8C0 146.7 2.3 149 5.2 149H107.3C109.3 149 110.9 147.4 110.9 145.4V114.9C110.9 114.8 110.9 114.8 110.9 114.8L134.4 74L141.4 61.7C142.1 60.6 141.7 59.3 140.7 58.7ZM136.3 48.5C136.4 48.3 136.7 48.1 136.9 48C137.2 47.9 137.5 48 137.7 48.1L140.4 49.7C140.9 50 141.1 50.7 140.8 51.2L137.5 56.9L132.9 54.3L136.3 48.5ZM133.8 72.9L121.8 65.9L124.8 60.6L136.8 67.6L133.8 72.9ZM100.5 130.8L88.5 123.8L121.3 66.7L133.3 73.7L100.5 130.8ZM88.2 124.8L99.8 131.6L85.4 143C85.3 143.1 85.1 143.1 85.1 143C85 143 84.9 142.9 85 142.7L88.2 124.8ZM70 1.5L109.3 40H72.6C71.2 40 70 38.8 70 37.4V1.5ZM110 145.4C110 146.9 108.8 148 107.4 148H5.2C2.9 148 1 146.1 1 143.8V5.2C1 2.9 2.9 1 5.2 1H69V37.4C69 39.4 70.6 41 72.6 41H110V84.4L87.4 123.7C87.4 123.7 87.4 123.8 87.3 123.9L84 142.5C83.9 143 84.1 143.6 84.6 143.8C84.8 143.9 85 144 85.3 144C85.6 144 85.9 143.9 86.1 143.7L101.1 131.9L101.2 131.8L110 116.4V145.4ZM140.6 61L137.3 66.7L125.3 59.7L128.6 54C128.7 53.8 129 53.6 129.2 53.5C129.5 53.4 129.8 53.5 130 53.6L132 54.8L137.4 57.9L140.1 59.5C140.7 59.9 140.9 60.5 140.6 61Z" fill="white"/>
</svg>
