<svg width="141" height="140" viewBox="0 0 141 140" fill="none" xmlns="http://www.w3.org/2000/svg">
    <path d="M134.3 10H108.5C108.2 10 108 10.2 108 10.5C108 10.8 108.2 11 108.5 11H134.3C137.5 11 140 13.5 140 16.7V34H1V16.7C1 13.5 3.6 11 6.7 11H42.5C42.8 11 43 10.8 43 10.5C43 10.2 42.8 10 42.5 10H37.1C37.8 4.8 42.2 1 47.5 1C53.3 1 58 5.7 58 11.5C58 17.3 53.3 22 47.5 22C47.2 22 47 22.2 47 22.5C47 22.8 47.2 23 47.5 23C53.8 23 59 17.8 59 11.5C59 5.2 53.8 0 47.5 0C41.7 0 36.8 4.3 36.1 10H6.7C3 10 0 13 0 16.7V132.4C0 136.1 3 139.1 6.7 139.1H134.3C138 139.1 141 136.1 141 132.4V16.7C141 13 138 10 134.3 10ZM1 69H34V104H1V69ZM35 69H70V104H35V69ZM70 68H35V35H70V68ZM71 35H106V68H71V35ZM70 105V138H35V105H70ZM71 105H106V138H71V105ZM71 104V69H106V104H71ZM107 69H140V104H107V69ZM140 68H107V35H140V68ZM34 35V68H1V35H34ZM1 132.3V105H34V138H6.7C3.6 138 1 135.5 1 132.3ZM134.3 138H107V105H140V132.3C140 135.5 137.4 138 134.3 138Z" fill="white"/>
    <path d="M53.2 86.5L63.8 75.9C64 75.7 64 75.3999 63.8 75.1999C63.6 74.9999 63.3 74.9999 63.1 75.1999L52.5 85.8L41.9 75.1C41.7 74.9 41.4 74.9 41.2 75.1C41 75.3 41 75.6 41.2 75.8L51.8 86.4L41.1 97.1C40.9 97.3 40.9 97.6 41.1 97.8C41.2 97.9 41.3 97.9 41.5 97.9C41.7 97.9 41.8 97.9 41.9 97.8L52.5 87.1999L63.1 97.8C63.2 97.9 63.3 97.9 63.5 97.9C63.7 97.9 63.8 97.9 63.9 97.8C64.1 97.6 64.1 97.3 63.9 97.1L53.2 86.5Z" fill="white"/>
    <path d="M89.2 86.5L99.8 75.9C100 75.7 100 75.3999 99.8 75.1999C99.6 74.9999 99.3 74.9999 99.1 75.1999L88.5 85.8L77.9 75.1C77.7 74.9 77.4 74.9 77.2 75.1C77 75.3 77 75.6 77.2 75.8L87.8 86.4L77.1 97.1C76.9 97.3 76.9 97.6 77.1 97.8C77.2 97.9 77.3 97.9 77.5 97.9C77.7 97.9 77.8 97.9 77.9 97.8L88.5 87.1999L99.1 97.8C99.2 97.9 99.3 97.9 99.5 97.9C99.7 97.9 99.8 97.9 99.9 97.8C100.1 97.6 100.1 97.3 99.9 97.1L89.2 86.5Z" fill="white"/>
    <path d="M124.2 86.5001L134.8 75.9001C135 75.7001 135 75.4 134.8 75.2C134.6 75 134.3 75 134.1 75.2L123.5 85.8001L112.9 75.2C112.7 75 112.4 75 112.2 75.2C112 75.4 112 75.7001 112.2 75.9001L122.8 86.5001L112.2 97.1C112 97.3001 112 97.6001 112.2 97.8001C112.3 97.9001 112.4 97.9001 112.6 97.9001C112.8 97.9001 112.9 97.9001 113 97.8001L123.6 87.2L134.2 97.8001C134.3 97.9001 134.4 97.9001 134.6 97.9001C134.8 97.9001 134.9 97.9001 135 97.8001C135.2 97.6001 135.2 97.3001 135 97.1L124.2 86.5001Z" fill="white"/>
    <path d="M62.5 22C62.2 22 62 22.2 62 22.5C62 22.8 62.2 23 62.5 23C68.8 23 74 17.8 74 11.5C74 5.2 68.8 0 62.5 0C62.2 0 62 0.2 62 0.5C62 0.8 62.2 1 62.5 1C68.3 1 73 5.7 73 11.5C73 17.3 68.3 22 62.5 22Z" fill="white"/>
    <path d="M77.5 22C77.2 22 77 22.2 77 22.5C77 22.8 77.2 23 77.5 23C83.8 23 89 17.8 89 11.5C89 5.2 83.8 0 77.5 0C77.2 0 77 0.2 77 0.5C77 0.8 77.2 1 77.5 1C83.3 1 88 5.7 88 11.5C88 17.3 83.3 22 77.5 22Z" fill="white"/>
    <path d="M93.5 22C93.2 22 93 22.2 93 22.5C93 22.8 93.2 23 93.5 23C99.8 23 105 17.8 105 11.5C105 5.2 99.8 0 93.5 0C93.2 0 93 0.2 93 0.5C93 0.8 93.2 1 93.5 1C99.3 1 104 5.7 104 11.5C104 17.3 99.3 22 93.5 22Z" fill="white"/>
</svg>
