<svg width="92" height="92" viewBox="0 0 92 92" fill="none" xmlns="http://www.w3.org/2000/svg">
    <path d="M11 30H33C33.2652 30 33.5196 29.8946 33.7071 29.7071C33.8946 29.5196 34 29.2652 34 29C34 28.7348 33.8946 28.4804 33.7071 28.2929C33.5196 28.1054 33.2652 28 33 28H11C10.7348 28 10.4804 28.1054 10.2929 28.2929C10.1054 28.4804 10 28.7348 10 29C10 29.2652 10.1054 29.5196 10.2929 29.7071C10.4804 29.8946 10.7348 30 11 30Z" fill="#8CAAF3"/>
    <path d="M11 38H59C59.2652 38 59.5196 37.8946 59.7071 37.7071C59.8946 37.5196 60 37.2652 60 37C60 36.7348 59.8946 36.4804 59.7071 36.2929C59.5196 36.1054 59.2652 36 59 36H11C10.7348 36 10.4804 36.1054 10.2929 36.2929C10.1054 36.4804 10 36.7348 10 37C10 37.2652 10.1054 37.5196 10.2929 37.7071C10.4804 37.8946 10.7348 38 11 38Z" fill="#8CAAF3"/>
    <path d="M11 46H33C33.2652 46 33.5196 45.8946 33.7071 45.7071C33.8946 45.5196 34 45.2652 34 45C34 44.7348 33.8946 44.4804 33.7071 44.2929C33.5196 44.1054 33.2652 44 33 44H11C10.7348 44 10.4804 44.1054 10.2929 44.2929C10.1054 44.4804 10 44.7348 10 45C10 45.2652 10.1054 45.5196 10.2929 45.7071C10.4804 45.8946 10.7348 46 11 46Z" fill="#8CAAF3"/>
    <path d="M59 44H40C39.7348 44 39.4804 44.1054 39.2929 44.2929C39.1054 44.4804 39 44.7348 39 45C39 45.2652 39.1054 45.5196 39.2929 45.7071C39.4804 45.8946 39.7348 46 40 46H59C59.2652 46 59.5196 45.8946 59.7071 45.7071C59.8946 45.5196 60 45.2652 60 45C60 44.7348 59.8946 44.4804 59.7071 44.2929C59.5196 44.1054 59.2652 44 59 44Z" fill="#8CAAF3"/>
    <path d="M11 60H53C53.2652 60 53.5196 59.8946 53.7071 59.7071C53.8946 59.5196 54 59.2652 54 59C54 58.7348 53.8946 58.4804 53.7071 58.2929C53.5196 58.1054 53.2652 58 53 58H11C10.7348 58 10.4804 58.1054 10.2929 58.2929C10.1054 58.4804 10 58.7348 10 59C10 59.2652 10.1054 59.5196 10.2929 59.7071C10.4804 59.8946 10.7348 60 11 60Z" fill="#8CAAF3"/>
    <path d="M47 66H11C10.7348 66 10.4804 66.1054 10.2929 66.2929C10.1054 66.4804 10 66.7348 10 67C10 67.2652 10.1054 67.5196 10.2929 67.7071C10.4804 67.8946 10.7348 68 11 68H47C47.2652 68 47.5196 67.8946 47.7071 67.7071C47.8946 67.5196 48 67.2652 48 67C48 66.7348 47.8946 66.4804 47.7071 66.2929C47.5196 66.1054 47.2652 66 47 66Z" fill="#8CAAF3"/>
    <path d="M33 78H11C10.7348 78 10.4804 78.1054 10.2929 78.2929C10.1054 78.4804 10 78.7348 10 79C10 79.2652 10.1054 79.5196 10.2929 79.7071C10.4804 79.8946 10.7348 80 11 80H33C33.2652 80 33.5196 79.8946 33.7071 79.7071C33.8946 79.5196 34 79.2652 34 79C34 78.7348 33.8946 78.4804 33.7071 78.2929C33.5196 78.1054 33.2652 78 33 78Z" fill="#8CAAF3"/>
    <path d="M92 55.7C91.9995 55.5677 91.9727 55.4368 91.9212 55.3149C91.8697 55.1931 91.7945 55.0826 91.7 54.99L83.86 47.29C83.6731 47.1068 83.4218 47.0041 83.16 47.0041C82.8983 47.0041 82.6469 47.1068 82.46 47.29L68 61.48V11C68 10.7348 67.8946 10.4804 67.7071 10.2929C67.5196 10.1054 67.2652 10 67 10H53V6C53 5.73478 52.8946 5.48043 52.7071 5.29289C52.5196 5.10536 52.2652 5 52 5H42V1C42 0.734784 41.8946 0.48043 41.7071 0.292893C41.5196 0.105357 41.2652 0 41 0L27 0C26.7348 0 26.4804 0.105357 26.2929 0.292893C26.1054 0.48043 26 0.734784 26 1V5H16C15.7348 5 15.4804 5.10536 15.2929 5.29289C15.1054 5.48043 15 5.73478 15 6V10H1C0.734784 10 0.48043 10.1054 0.292893 10.2929C0.105357 10.4804 0 10.7348 0 11L0 91C0 91.2652 0.105357 91.5196 0.292893 91.7071C0.48043 91.8946 0.734784 92 1 92H67C67.2652 92 67.5196 91.8946 67.7071 91.7071C67.8946 91.5196 68 91.2652 68 91V79.68L91.7 56.41C91.7945 56.3174 91.8697 56.2069 91.9212 56.0851C91.9727 55.9632 91.9995 55.8323 92 55.7ZM63.9 80.9L57.48 74.6L67.7 64.6L75.31 57.13L81.73 63.43L63.9 80.9ZM56.61 76.54L62 81.85L55.6 83.3L56.61 76.54ZM28 2H40V10H28V2ZM17 7H26V11C26 11.2652 26.1054 11.5196 26.2929 11.7071C26.4804 11.8946 26.7348 12 27 12H41C41.2652 12 41.5196 11.8946 41.7071 11.7071C41.8946 11.5196 42 11.2652 42 11V7H51V15H17V7ZM66 90H2V12H15V16C15 16.2652 15.1054 16.5196 15.2929 16.7071C15.4804 16.8946 15.7348 17 16 17H52C52.2652 17 52.5196 16.8946 52.7071 16.7071C52.8946 16.5196 53 16.2652 53 16V12H66V63.44L55.36 73.89C55.1892 74.1419 55.0258 74.3986 54.87 74.66L53.49 84.13L52.3 85.29C52.1104 85.4757 52.0023 85.729 51.9994 85.9944C51.9966 86.2598 52.0993 86.5154 52.285 86.705C52.4706 86.8946 52.724 87.0027 52.9894 87.0056C53.2548 87.0084 53.5104 86.9057 53.7 86.72L54.92 85.52L63.92 83.52C64.1539 83.464 64.3599 83.3255 64.5 83.13L64.6 83.06L66 81.64V90ZM83.16 62L76.74 55.7L83.15 49.4L89.57 55.7L83.16 62Z" fill="#8CAAF3"/>
</svg>
