<svg width="18" height="21" viewBox="0 0 18 21" fill="none" xmlns="http://www.w3.org/2000/svg">
    <path d="M11.3112 0.065625C13.293 1.09288 16.6554 4.33825 18 6.0865C16.8426 5.299 14.3604 4.63662 12.5181 5.05487C12.7179 3.77038 12.3516 1.08763 11.3112 0.065625ZM18 9.625V21H0V0H7.5681C11.9394 0 10.5696 7 10.5696 7C13.2777 6.34812 18 6.63338 18 9.625ZM3.6 14H8.1V10.5H3.6V14ZM14.4 15.75H3.6V16.625H14.4V15.75ZM14.4 13.125H9.9V14H14.4V13.125ZM14.4 10.5H9.9V11.375H14.4V10.5Z" fill="#8CAAF3"/>
</svg>
