<svg width="142" height="23" viewBox="0 0 142 23" fill="none" xmlns="http://www.w3.org/2000/svg">
    <path d="M49.8736 8.85363C48.979 8.2276 48.3069 7.9286 46.9248 7.9286C45.4386 7.9286 44.5487 8.47053 43.9523 9.08255V7.80713H39.8156V22.6496H43.9523V13.091C44.4162 12.208 45.0741 11.7969 46.016 11.7969C46.6739 11.7969 46.9485 11.9184 46.9485 11.9184L47.1188 12.0025L50.1291 9.03116L49.8736 8.85363Z" fill="#3764EB"/>
    <path d="M60.6084 8.34495C59.8653 7.99456 59.0133 7.83572 57.9152 7.83572C55.6433 7.83572 53.5938 8.6019 52.1454 9.99412C50.6924 11.391 49.8925 13.3672 49.8925 15.5677C49.8925 17.7261 50.5409 19.5574 51.7715 20.8702C53.0116 22.197 54.7582 22.8931 56.8124 22.8931C58.2844 22.8931 59.5576 22.4353 60.6036 21.5383V22.6455H64.7404V0.0664062L60.6036 4.12626V8.34495H60.6084ZM58.0761 11.704C58.947 11.704 59.7753 11.9423 60.6084 12.4282V17.7868C60.0688 18.296 59.018 19.0622 57.5697 19.0622C55.932 19.0622 54.2801 17.9456 54.2801 15.4462C54.2849 12.8767 56.2491 11.704 58.0761 11.704Z" fill="#3764EB"/>
    <path d="M100.609 7.84033C95.9227 7.84033 92.6521 10.9565 92.6521 15.4181C92.6521 19.8797 95.9227 22.9959 100.609 22.9959C105.294 22.9959 108.565 19.8797 108.565 15.4181C108.565 10.9565 105.294 7.84033 100.609 7.84033ZM100.609 19.1556C98.5402 19.1556 97.0398 17.5812 97.0398 15.4134C97.0398 13.227 98.507 11.704 100.609 11.704C102.696 11.704 104.211 13.2644 104.211 15.4134C104.215 17.6513 102.767 19.1556 100.609 19.1556Z" fill="#3764EB"/>
    <path d="M121.075 8.34474C120.332 7.99435 119.48 7.83551 118.382 7.83551C116.11 7.83551 114.06 8.60169 112.612 9.99391C111.159 11.3908 110.359 13.367 110.359 15.5674C110.359 17.7258 111.007 19.5572 112.238 20.87C113.478 22.1968 115.224 22.8929 117.279 22.8929C118.751 22.8929 120.024 22.4351 121.07 21.5381V22.6453H125.207V0.0615234L121.075 4.15408V8.34474ZM118.538 11.7038C119.409 11.7038 120.237 11.9421 121.07 12.428V17.7866C120.53 18.2958 119.48 19.062 118.031 19.062C116.394 19.062 114.742 17.9454 114.742 15.446C114.746 12.8765 116.711 11.7038 118.538 11.7038Z" fill="#3764EB"/>
    <path d="M139.932 9.68572C138.654 8.49439 136.912 7.84033 135.037 7.84033C132.742 7.84033 130.778 8.60652 129.367 10.0548C128.032 11.4237 127.299 13.3251 127.299 15.4181C127.299 19.9498 130.46 22.9959 135.165 22.9959C138.01 22.9959 139.387 22.2811 141.082 20.8655L141.299 20.6833L139.032 18.4501L138.848 18.595C138.166 19.1369 137.347 19.4966 135.534 19.4966C133.442 19.4966 131.994 18.4782 131.606 16.7589H141.711L141.768 16.5721C141.934 16.0161 142 15.4555 142 14.5772C141.995 12.657 141.262 10.9191 139.932 9.68572ZM134.886 11.3302C135.818 11.3302 136.59 11.6152 137.125 12.1478C137.56 12.5869 137.816 13.1803 137.854 13.8484H131.506C131.956 12.1805 133.092 11.3302 134.886 11.3302Z" fill="#3764EB"/>
    <path d="M32.1857 8.39578C31.5609 8.16686 30.4296 7.8445 29.6676 7.8445C27.3199 7.8445 25.1853 8.62938 23.647 10.0496C22.1371 11.4465 21.3041 13.3573 21.3041 15.4223C21.3041 17.6461 21.9809 19.5382 23.2541 20.8977C24.5463 22.2712 26.3638 23 28.508 23C29.8427 23 31.1349 22.5796 32.1431 21.8367V22.659H36.2799V7.80713H32.1857V8.39578ZM32.1383 17.8657C31.5277 18.4823 30.4154 19.1691 29.1659 19.1691C27.0218 19.1691 25.687 17.7956 25.687 15.5811C25.687 13.6563 26.9082 11.7175 29.6345 11.7175C30.4438 11.7175 31.2627 11.909 32.1383 12.3061V17.8657Z" fill="#3764EB"/>
    <path d="M14.3889 9.61863H4.38766V0.447754H0V22.6718L4.38766 22.6578V13.7018H14.3889V22.6671H18.7481V0.447754H14.3889V9.61863Z" fill="#3764EB"/>
    <path d="M89.9163 6.75552C89.3436 5.37265 88.5153 4.15329 87.4456 3.13482C85.3251 1.1119 82.3527 0 79.082 0C75.783 0 72.7869 1.17731 70.6475 3.31235C68.546 5.41002 67.3864 8.30191 67.3864 11.4507C67.3864 13.1373 67.6845 14.7164 68.2715 16.1506C68.8394 17.5335 69.6677 18.7529 70.7327 19.7713C72.8437 21.7943 75.8114 22.9062 79.082 22.9062C81.1883 22.9062 83.1005 22.4717 84.7713 21.6074L85.6233 22.5651H90.8061L87.8858 19.2107C89.7743 17.1644 90.8109 14.4174 90.8109 11.4507C90.8109 9.76887 90.5079 8.18978 89.9163 6.75552ZM79.082 18.8229C75.1062 18.8229 71.9917 15.5853 71.9917 11.4554C71.9917 7.18533 74.9736 4.08788 79.082 4.08788C83.2094 4.08788 86.2007 7.18533 86.2007 11.4554C86.2007 13.1093 85.7748 14.6229 84.9606 15.8657L83.1573 13.782H77.894L81.9409 18.3044C81.051 18.6501 80.0902 18.8229 79.082 18.8229Z" fill="#3764EB"/>
</svg>
