<svg width="48" height="49" viewBox="0 0 48 49" fill="none" xmlns="http://www.w3.org/2000/svg">
    <path d="M48 29.1779C48.0033 27.92 47.5645 26.7008 46.76 25.7328C47.3283 24.3522 47.378 22.8131 46.9 21.3989C46.42 20.0308 44.68 16.8752 38.79 17.1948C35.23 17.3945 32.79 17.5443 31.35 17.6441C31.5629 15.354 32.1191 13.1087 33 10.9835C33.6466 9.43648 33.8016 7.72838 33.4438 6.0905C33.0861 4.45261 32.233 2.96407 31 1.82641C29.19 0.148767 27 -0.430417 25.36 0.328514C22.15 1.83639 22.51 4.5326 22.69 5.83077C22.7326 6.09187 22.7593 6.35532 22.77 6.61966C22.49 7.68815 19.28 13.9394 16.33 19.4017L13.91 22.9666H2C1.46957 22.9666 0.960859 23.1771 0.585786 23.5516C0.210714 23.9262 0 24.4341 0 24.9638L0 46.9329C0 47.4626 0.210714 47.9706 0.585786 48.3451C0.960859 48.7197 1.46957 48.9301 2 48.9301H13.87C14.2328 48.9282 14.5883 48.8277 14.8983 48.6395C15.2084 48.4513 15.4613 48.1824 15.63 47.8616L36.49 48.9201C36.9649 48.9718 37.4423 48.9985 37.92 49C40.81 49 43.15 48.0014 44.46 46.2039C44.9469 45.5072 45.2798 44.7151 45.4367 43.8801C45.5936 43.0451 45.5708 42.1863 45.37 41.3608C46.5843 40.4208 47.3755 39.0381 47.57 37.5162C47.8219 35.9711 47.4634 34.3887 46.57 33.1024C47.5171 32.0163 48.0267 30.6178 48 29.1779ZM11.87 44.8658H4V26.961H11.87V44.8658ZM42.64 31.0453C42.2738 31.1866 41.9574 31.4325 41.7302 31.7521C41.503 32.0718 41.375 32.4512 41.3622 32.843C41.3494 33.2349 41.4524 33.6218 41.6582 33.9555C41.8641 34.2893 42.1638 34.5552 42.52 34.7201C42.9145 34.9098 43.2358 35.2236 43.4345 35.6132C43.6332 36.0029 43.6984 36.4469 43.62 36.8771C43.53 37.4862 43.18 38.1653 42.62 38.2551C42.3128 38.2999 42.0203 38.4156 41.7657 38.5928C41.511 38.77 41.3011 39.004 41.1527 39.2763C41.0042 39.5485 40.9213 39.8515 40.9104 40.1613C40.8995 40.4711 40.961 40.7792 41.09 41.0612C41.3413 41.471 41.4849 41.9376 41.5077 42.4176C41.5304 42.8976 41.4314 43.3756 41.22 43.8073C40.58 44.6961 38.91 45.1155 36.86 44.8858H36.75L15.87 43.8073V27.1508L19.68 21.5686L19.79 21.3989C22.26 16.8353 26.43 8.98633 26.7 7.31867C26.7834 6.65419 26.7665 5.98098 26.65 5.32149C26.51 4.32289 26.5 4.243 26.95 4.02331C27.7147 4.22339 28.3798 4.69575 28.82 5.35144C29.2541 5.96104 29.5213 6.67331 29.5949 7.41771C29.6686 8.16211 29.5462 8.91281 29.24 9.59547C26.41 17.2647 27.5 20.1107 27.9 20.7997C28.0881 21.1277 28.3656 21.3956 28.7001 21.5724C29.0347 21.7492 29.4126 21.8275 29.79 21.7983C29.79 21.7983 32.51 21.5886 39.03 21.2191C40.32 21.1492 42.56 21.2191 43.12 22.687C43.2368 22.994 43.276 23.325 43.2342 23.6507C43.1923 23.9765 43.0707 24.2868 42.88 24.5544C42.582 24.7635 42.3469 25.0498 42.1999 25.3826C42.0529 25.7153 41.9997 26.0818 42.0461 26.4425C42.0924 26.8032 42.2364 27.1445 42.4627 27.4294C42.689 27.7144 42.9888 27.9322 43.33 28.0595C43.5394 28.1649 43.714 28.3283 43.8328 28.5302C43.9517 28.7321 44.0097 28.9639 44 29.1979C43.9908 29.608 43.8553 30.0053 43.6119 30.3359C43.3686 30.6664 43.0292 30.9141 42.64 31.0453Z" fill="#8CAAF3"/>
</svg>
