<svg width="166" height="32" viewBox="0 0 166 32" fill="none" xmlns="http://www.w3.org/2000/svg">
    <path d="M21.4209 4.45024C21.4209 5.08598 21.1608 5.72173 20.6406 6.35748C20.1205 6.99323 19.4821 7.29933 18.7019 7.29933C17.9926 7.29933 17.1178 7.06387 16.0775 6.61649C14.5643 6.02783 13.0748 5.74528 11.6089 5.74528C10.2849 5.74528 9.14998 6.09847 8.22789 6.82841C7.28215 7.55834 6.83293 8.42955 6.83293 9.46558C6.83293 10.4781 7.3058 11.208 8.22789 11.6789C9.17362 12.1499 10.5686 12.5737 12.4364 12.9504C15.6992 13.6333 18.1817 14.6222 19.9077 15.9643C21.6337 17.2829 22.4848 19.3315 22.4848 22.0393C22.4848 25.0767 21.4209 27.4784 19.293 29.2444C17.1651 31.0104 14.4224 31.9287 11.0651 31.9993C7.58952 32.0229 4.61045 31.4342 2.1279 30.2098C0.709301 29.5741 0 28.5851 0 27.2665C0 26.3718 0.260077 25.6183 0.780231 24.9825C1.30038 24.3468 1.93876 24.0172 2.71899 24.0172C3.42829 24.0172 4.27945 24.2055 5.24883 24.6058C7.4713 25.5477 9.36277 26.0186 10.9705 26.0186C12.4128 26.0186 13.6186 25.6654 14.5643 24.959C15.51 24.2526 15.9829 23.3343 15.9829 22.157C15.9829 21.0974 15.51 20.2498 14.5407 19.6846C13.5713 19.096 12.2236 18.6486 10.5213 18.319C7.32944 17.6832 4.87053 16.7414 3.07364 15.4934C1.27674 14.2455 0.378294 12.3618 0.378294 9.91296C0.378294 7.13451 1.48953 4.77988 3.71201 2.87264C5.93448 0.965395 8.60618 0 11.7035 0C14.7771 0 17.4488 0.541563 19.7186 1.64824C20.8534 2.16625 21.4209 3.1081 21.4209 4.45024Z" fill="#6F859B"/>
    <path d="M29.5542 1.17731C30.1926 0.706387 31.0201 0.470924 32.0367 0.470924H33.8809C36.6708 0.470924 39.2716 0.447378 41.6596 0.423832C44.0476 0.400286 45.3716 0.37674 45.5844 0.37674C46.4828 0.37674 47.1449 0.612202 47.6177 1.05958C48.0669 1.50696 48.327 2.11916 48.3507 2.89619C48.4216 4.45024 47.8778 5.41563 46.7429 5.74528C46.1045 5.83946 42.6999 5.88656 36.529 5.88656H34.9212V9.04175L34.8267 13.2094V13.5391H36.2926C38.8697 13.5391 41.1394 13.5155 43.1018 13.4449C44.3077 13.4449 45.1588 13.6097 45.7026 13.9629C46.2464 14.3161 46.4828 15.046 46.4592 16.1763C46.3883 17.9422 45.4662 18.837 43.6456 18.837H34.7084C34.6848 19.355 34.6612 20.2027 34.6612 21.4035V26.0892C38.3495 26.0892 41.3049 26.0657 43.5038 25.995C43.9057 25.995 44.4022 25.995 44.9933 25.9715C45.5844 25.9479 46.0336 25.9479 46.3173 25.9479C47.9724 25.9479 48.7999 26.8662 48.7999 28.7029C48.7999 30.6336 47.8542 31.6226 45.939 31.6932H33.3371C31.493 31.6932 30.2162 31.5049 29.5306 31.1046C28.8449 30.7043 28.443 29.9037 28.3484 28.6793C28.2775 28.0671 28.2775 27.5726 28.3011 27.1723C28.3011 27.0782 28.3247 26.3953 28.3484 25.1238C28.372 23.8523 28.4193 22.1099 28.443 19.9201C28.4666 17.7068 28.4902 15.6818 28.4902 13.8216C28.4902 12.6208 28.4902 10.8548 28.5139 8.52373C28.5375 6.19266 28.5375 4.42669 28.5375 3.27293C28.5848 2.33108 28.9158 1.64824 29.5542 1.17731Z" fill="#6F859B"/>
    <path d="M57.808 31.7874C55.6565 31.7874 54.5452 30.8691 54.4507 29.0325C54.4507 27.0782 54.4743 23.4756 54.4979 18.2012V8.35891V3.1081C54.5216 2.26044 54.9472 1.5776 55.7274 1.08312C56.5076 0.588654 57.3824 0.353191 58.3754 0.353191C59.1793 0.353191 59.8413 0.541561 60.3615 0.918301C60.8816 1.29504 61.4491 1.90724 62.0638 2.73136L72.3014 17.0004L74.713 20.65C74.6421 17.848 74.6184 15.2109 74.6184 12.8091L74.5239 3.95576C74.5239 2.66072 74.7839 1.74242 75.3041 1.20086C75.8242 0.659292 76.6754 0.376738 77.8812 0.376738C79.9145 0.376738 80.9312 1.43632 80.9312 3.53193V19.0724C80.9312 19.4963 80.9312 20.7207 80.9549 22.7221C80.9785 24.7235 80.9785 26.7721 80.9785 28.8912C80.9785 29.786 80.6002 30.4924 79.8436 31.0104C79.087 31.5284 78.1886 31.7874 77.1483 31.7874C76.3444 31.7874 75.706 31.599 75.2095 31.2223C74.713 30.8456 74.1929 30.2098 73.6491 29.3621L60.6689 10.8784C60.6452 12.8562 60.6452 16.0114 60.7161 20.3204C60.7871 24.6294 60.8107 27.3843 60.8107 28.5851C60.8107 30.7278 59.7941 31.7874 57.808 31.7874Z" fill="#6F859B"/>
    <path d="M108.499 4.45024C108.499 5.08598 108.239 5.72173 107.719 6.35748C107.199 6.99323 106.561 7.29933 105.78 7.29933C105.071 7.29933 104.196 7.06387 103.156 6.61649C101.643 6.02783 100.153 5.74528 98.6874 5.74528C97.3634 5.74528 96.2285 6.09847 95.3064 6.82841C94.3843 7.55834 93.9114 8.42955 93.9114 9.46558C93.9114 10.4781 94.3843 11.208 95.3064 11.6789C96.2521 12.1499 97.6471 12.5737 99.5149 12.9504C102.778 13.6333 105.26 14.6222 106.986 15.9643C108.712 17.2829 109.563 19.3315 109.563 22.0393C109.563 25.0767 108.499 27.4784 106.371 29.2444C104.244 31.0104 101.501 31.9287 98.1436 31.9993C94.668 32.0229 91.6889 31.4342 89.2064 30.2098C87.7878 29.5741 87.0785 28.5851 87.0785 27.2665C87.0785 26.3718 87.3386 25.6183 87.8587 24.9825C88.3789 24.3468 89.0172 24.0172 89.7975 24.0172C90.5068 24.0172 91.3579 24.2055 92.3273 24.6058C94.5498 25.5477 96.4413 26.0186 98.049 26.0186C99.4913 26.0186 100.697 25.6654 101.643 24.959C102.589 24.2526 103.061 23.3343 103.061 22.157C103.061 21.0974 102.589 20.2498 101.619 19.6846C100.65 19.096 99.3021 18.6486 97.5998 18.319C94.4316 17.7068 91.949 16.7649 90.1521 15.4934C88.3552 14.2219 87.4568 12.3618 87.4568 9.91296C87.4568 7.13451 88.568 4.77988 90.7905 2.87264C93.013 0.965395 95.6847 0 98.782 0C101.856 0 104.527 0.541563 106.797 1.64824C107.932 2.16625 108.499 3.1081 108.499 4.45024Z" fill="#6F859B"/>
    <path d="M116.656 1.17731C117.295 0.706387 118.122 0.470924 119.139 0.470924H120.983C123.773 0.470924 126.374 0.447378 128.762 0.423832C131.15 0.400286 132.45 0.37674 132.687 0.37674C133.585 0.37674 134.247 0.612202 134.72 1.05958C135.169 1.50696 135.429 2.11916 135.453 2.89619C135.524 4.45024 134.98 5.41563 133.845 5.74528C133.207 5.83946 129.802 5.88656 123.631 5.88656H122V9.04175L121.905 13.2094V13.5391H123.371C125.948 13.5391 128.218 13.5155 130.18 13.4449C131.386 13.4449 132.237 13.6097 132.781 13.9629C133.325 14.3161 133.561 15.046 133.538 16.1763C133.467 17.9422 132.545 18.837 130.724 18.837H121.787C121.763 19.3785 121.763 20.2262 121.763 21.4271V26.1128C125.452 26.1128 128.407 26.0892 130.606 26.0186C131.008 26.0186 131.504 26.0186 132.095 25.995C132.687 25.9715 133.136 25.9715 133.419 25.9715C135.075 25.9715 135.902 26.8898 135.902 28.7264C135.902 30.6572 134.956 31.6461 133.041 31.7168H120.416C118.571 31.7168 117.318 31.5284 116.609 31.1281C115.923 30.7278 115.521 29.9273 115.427 28.7029C115.356 28.0906 115.356 27.5962 115.38 27.1959C115.38 27.1017 115.403 26.4189 115.427 25.1474C115.451 23.8759 115.498 22.1335 115.521 19.9437C115.545 17.7303 115.569 15.7053 115.569 13.8452C115.569 12.6443 115.569 10.8784 115.592 8.54728C115.616 6.2162 115.616 4.45024 115.616 3.29647C115.663 2.33108 115.994 1.64824 116.656 1.17731Z" fill="#6F859B"/>
    <path d="M148.622 18.5309L139.874 5.32144C139.378 4.52087 139.141 3.86158 139.141 3.34356C139.141 2.51944 139.496 1.81306 140.181 1.20086C140.867 0.6122 141.671 0.306099 142.546 0.306099C143.562 0.306099 144.366 0.777024 144.981 1.71887L152.618 13.9629C152.689 13.8687 155.171 9.84232 160.089 1.86015C160.775 0.80057 161.673 0.259007 162.808 0.259007C163.565 0.259007 164.298 0.541561 164.983 1.10667C165.669 1.67178 166 2.33107 166 3.06101C166 3.76739 165.764 4.45023 165.267 5.13308L155.739 19.5905V29.1267C155.739 29.9508 155.431 30.5865 154.793 31.0575C154.155 31.5048 153.398 31.7403 152.476 31.7403C151.53 31.7403 150.75 31.4578 150.159 30.9162C149.568 30.3746 149.261 29.6447 149.261 28.7499C149.261 28.3732 149.284 27.8081 149.308 27.0075C149.331 26.2069 149.355 25.6183 149.355 25.218V19.6376L148.622 18.5309Z" fill="#6F859B"/>
</svg>
