<svg width="44" height="46" viewBox="0 0 44 46" fill="none" xmlns="http://www.w3.org/2000/svg">
    <path d="M17 40H7.83001L36.41 11.41C36.7853 11.0347 36.9961 10.5257 36.9961 9.99501C36.9961 9.46428 36.7853 8.95529 36.41 8.58001C36.0347 8.20473 35.5257 7.9939 34.995 7.9939C34.4643 7.9939 33.9553 8.20473 33.58 8.58001L5.00001 37.17V28C5.00001 27.4696 4.78929 26.9609 4.41422 26.5858C4.03915 26.2107 3.53044 26 3.00001 26C2.46957 26 1.96087 26.2107 1.58579 26.5858C1.21072 26.9609 1.00001 27.4696 1.00001 28V42C0.987302 42.1297 0.987302 42.2603 1.00001 42.39C1.00001 42.45 1.00001 42.51 1.05001 42.56C1.06651 42.6277 1.08654 42.6944 1.11001 42.76C1.13959 42.8285 1.17297 42.8953 1.21001 42.96C1.21001 42.96 1.21001 43.06 1.29001 43.11C1.43558 43.3276 1.62245 43.5144 1.84001 43.66L1.99001 43.74L2.18001 43.84L2.38001 43.9L2.55001 43.95C2.69763 43.9837 2.8486 44.0004 3.00001 44H17C17.5304 44 18.0391 43.7893 18.4142 43.4142C18.7893 43.0392 19 42.5304 19 42C19 41.4696 18.7893 40.9609 18.4142 40.5858C18.0391 40.2107 17.5304 40 17 40Z" fill="#8CAAF3"/>
    <path d="M9.5 19C11.3789 19 13.2156 18.4428 14.7779 17.399C16.3402 16.3551 17.5578 14.8714 18.2769 13.1355C18.9959 11.3996 19.184 9.48947 18.8175 7.64665C18.4509 5.80383 17.5461 4.11109 16.2175 2.78249C14.8889 1.45389 13.1962 0.549104 11.3534 0.182544C9.51054 -0.184015 7.60041 0.00411618 5.86451 0.723149C4.12861 1.44218 2.64491 2.65982 1.60104 4.22209C0.557165 5.78435 0 7.62108 0 9.5C0.00264713 12.0187 1.00439 14.4336 2.78541 16.2146C4.56643 17.9956 6.98126 18.9974 9.5 19ZM9.5 4C10.5878 4 11.6512 4.32257 12.5556 4.92692C13.4601 5.53127 14.1651 6.39025 14.5813 7.39525C14.9976 8.40024 15.1065 9.50611 14.8943 10.573C14.6821 11.6399 14.1583 12.6199 13.3891 13.3891C12.6199 14.1583 11.6399 14.6821 10.573 14.8943C9.5061 15.1065 8.40024 14.9976 7.39524 14.5813C6.39025 14.1651 5.53126 13.4601 4.92692 12.5556C4.32257 11.6512 4 10.5878 4 9.5C4.00264 8.04212 4.58295 6.64471 5.61383 5.61384C6.64471 4.58296 8.04212 4.00265 9.5 4Z" fill="#8CAAF3"/>
    <path d="M34.5 27C32.6211 27 30.7844 27.5572 29.2221 28.601C27.6598 29.6449 26.4422 31.1286 25.7231 32.8645C25.0041 34.6004 24.816 36.5105 25.1825 38.3534C25.5491 40.1962 26.4539 41.8889 27.7825 43.2175C29.1111 44.5461 30.8038 45.4509 32.6466 45.8175C34.4895 46.184 36.3996 45.9959 38.1355 45.2769C39.8714 44.5578 41.3551 43.3402 42.399 41.7779C43.4428 40.2156 44 38.3789 44 36.5C43.9974 33.9813 42.9956 31.5664 41.2146 29.7854C39.4336 28.0044 37.0187 27.0026 34.5 27ZM34.5 42C33.4122 42 32.3488 41.6774 31.4444 41.0731C30.5399 40.4687 29.8349 39.6098 29.4187 38.6048C29.0024 37.5998 28.8935 36.4939 29.1057 35.427C29.3179 34.3601 29.8417 33.3801 30.6109 32.6109C31.3801 31.8417 32.3601 31.3179 33.427 31.1057C34.4939 30.8935 35.5998 31.0024 36.6048 31.4187C37.6098 31.8349 38.4687 32.5399 39.0731 33.4444C39.6774 34.3488 40 35.4122 40 36.5C39.9974 37.9579 39.417 39.3553 38.3862 40.3862C37.3553 41.417 35.9579 41.9974 34.5 42Z" fill="#8CAAF3"/>
</svg>
