<svg width="85" height="107" viewBox="0 0 85 107" fill="none" xmlns="http://www.w3.org/2000/svg">
    <path d="M84 21H74V12C74 11.4 73.6 11 73 11H27V10.7V6.3C27 2.8 24.3 0 21 0C17.7 0 15 2.8 15 6.3V11H1C0.4 11 0 11.4 0 12V96C0 96.6 0.4 97 1 97H11V106C11 106.6 11.4 107 12 107H84C84.6 107 85 106.6 85 106V22C85 21.4 84.6 21 84 21ZM17 6.3C17 3.9 18.8 2 21 2C23.2 2 25 3.9 25 6.3V10.7V11H17V6.3ZM2 13H15V25.7C15 29.2 17.7 32 21 32C24.3 32 27 29.2 27 25.7V22C27 21.4 26.6 21 26 21C25.4 21 25 21.4 25 22V25.7C25 28.1 23.2 30 21 30C18.8 30 17 28.1 17 25.7V13H72V95H2V13ZM83 105H13V97H73C73.6 97 74 96.6 74 96V23H83V105Z" fill="#8CAAF3"/>
    <path d="M13 52H55C55.6 52 56 51.6 56 51C56 50.4 55.6 50 55 50H13C12.4 50 12 50.4 12 51C12 51.6 12.4 52 13 52Z" fill="#8CAAF3"/>
    <path d="M13 62H55C55.6 62 56 61.6 56 61C56 60.4 55.6 60 55 60H13C12.4 60 12 60.4 12 61C12 61.6 12.4 62 13 62Z" fill="#8CAAF3"/>
    <path d="M13 72H55C55.6 72 56 71.6 56 71C56 70.4 55.6 70 55 70H13C12.4 70 12 70.4 12 71C12 71.6 12.4 72 13 72Z" fill="#8CAAF3"/>
    <path d="M13 82H41C41.6 82 42 81.6 42 81C42 80.4 41.6 80 41 80H13C12.4 80 12 80.4 12 81C12 81.6 12.4 82 13 82Z" fill="#8CAAF3"/>
    <path d="M47 37H63C63.6 37 64 36.6 64 36V22C64 21.4 63.6 21 63 21H47C46.4 21 46 21.4 46 22V36C46 36.6 46.4 37 47 37ZM48 23H62V35H48V23Z" fill="#8CAAF3"/>
</svg>
