<svg width="102" height="93" viewBox="0 0 102 93" fill="none" xmlns="http://www.w3.org/2000/svg">
    <path d="M101.7 14.3C101.5 14.1 101.3 14 101 14H94V6C94 5.4 93.6 5 93 5H38.4L33.7 0.300003C33.5 0.100003 33.3 0 33 0H11C10.4 0 10 0.4 10 1V14H1C0.7 14 0.500003 14.1 0.300003 14.3C0.100003 14.5 0 14.8 0 15.1L6 83.1C6 83.6 6.5 84 7 84H31.8C36.4 89.5 43.3 93 51 93C58.7 93 65.6 89.5 70.2 84H95C95.5 84 96 83.6 96 83.1L102 15.1C102 14.8 101.9 14.5 101.7 14.3ZM12 2H32.6L37.3 6.7C37.5 6.9 37.7 7 38 7H92V14H12V2ZM51 91C43.8 91 37.4 87.7 33.2 82.6C33.1 82.4 33 82.3 32.9 82.2C29.8 78.3 28 73.4 28 68C28 55.3 38.3 45 51 45C63.7 45 74 55.3 74 68C74 73.4 72.2 78.3 69.1 82.2C69 82.3 68.9 82.4 68.8 82.6C64.6 87.7 58.2 91 51 91ZM94.1 82H71.7C74.4 78 76 73.2 76 68C76 54.2 64.8 43 51 43C37.2 43 26 54.2 26 68C26 73.2 27.6 78 30.3 82H7.9L2.1 16H99.9L94.1 82Z" fill="#8CAAF3"/>
    <path d="M51.7 56.4C51.5 56.1 51.2 56 50.9 56C50.6 56 50.3 56.1 50.1 56.3L41.2 66.3C40.9 66.7 40.9 67.3 41.3 67.7C41.7 68 42.3 68 42.7 67.6L50 59.4V80C50 80.6 50.4 81 51 81C51.6 81 52 80.6 52 80V60L58.2 67.6C58.4 67.9 58.7 68 59 68C59.2 68 59.4 67.9 59.7 67.8C60.1 67.5 60.1 66.8 59.8 66.4L51.7 56.4Z" fill="#8CAAF3"/>
    <path d="M19 7H17V9H19V7Z" fill="#8CAAF3"/>
    <path d="M24 7H22V9H24V7Z" fill="#8CAAF3"/>
    <path d="M29 7H27V9H29V7Z" fill="#8CAAF3"/>
</svg>
