<?xml version="1.0" encoding="utf-8"?>
<!-- Generator: Adobe Illustrator 21.1.0, SVG Export Plug-In . SVG Version: 6.00 Build 0)  -->
<svg version="1.1" id="Layer_2" xmlns="http://www.w3.org/2000/svg" xmlns:xlink="http://www.w3.org/1999/xlink" x="0px" y="0px"
	 viewBox="0 0 114 56" style="enable-background:new 0 0 114 56;" xml:space="preserve">
<style type="text/css">
	.st0{fill-rule:evenodd;clip-rule:evenodd;fill:#009E2E;}
	.st1{fill:#212125;}
</style>
<polygon class="st0" points="75.1,11.7 75.1,30.4 68.3,37.1 39.5,37.1 39.5,11.9 31.1,20.3 22.7,28.7 39.5,28.7 31.1,37.1 31,37.1 
	2.2,37.1 31.1,8.2 36.1,3.2 48,3.2 48,28.7 66.6,28.7 66.6,20.2 48,20.2 56.5,11.7 "/>
<polygon class="st0" points="112.4,11.7 112.4,30.4 105.7,37.1 76.8,37.1 76.8,3.2 85.3,3.2 85.3,28.7 104,28.7 104,20.2 85.3,20.2 
	93.8,11.7 "/>
<path class="st1" d="M25.1,43.9h-3l-5,4.1l1.1-4.1h-2.4l-2.7,10.2h2.4l0.9-3.2l1.5-1.2l1.9,4.4h3l-2.8-6L25.1,43.9z"/>
<polygon class="st1" points="107.2,48.1 110,54.1 107,54.1 105.2,49.7 103.7,50.9 102.8,54.1 100.4,54.1 100.9,52.3 103.2,43.9 
	105.5,43.9 104.4,48.1 109.4,43.9 112.4,43.9 "/>
<polygon class="st1" points="101.4,43.9 100.9,45.7 98.6,54.1 96.2,54.1 97.4,49.7 93.7,49.7 92.6,54.1 90.1,54.1 92.9,43.9 
	95.3,43.9 94.2,47.7 98,47.7 99,43.9 "/>
<path class="st1" d="M88.4,43.9H86l-0.6,0.8l-5.2,8.1l-0.8,1.2h2.5l1.1-1.9h3.7l0.1,1.9h2.6L88.4,43.9z M84.1,50.5l1.3-2.2l1.1-1.7
	l0.3,3.9H84.1z"/>
<path class="st1" d="M73.1,43.9l-2.7,10.2h5c2.3,0,4-1,4.6-3.1c0.9-3.3-2.1-3.3-3-3.3h-2.5l0.5-1.8h5.5l0.5-2H73.1z M75.9,49.7
	c0.6,0,1.7,0,1.4,1.3c-0.3,0.9-1.1,1.1-2,1.1h-2.1l0.7-2.4H75.9z"/>
<path class="st1" d="M64.7,47.5c0.2-1.6-1-1.7-1.6-1.7c-0.5,0-2.3,0.1-3.2,3.3c-0.5,1.8,0,3.1,1.5,3.1c1.5,0,2.2-1.1,2.5-1.8h2.3
	c-0.6,1.5-2,3.7-5.4,3.7c-1.6,0-3.1-0.5-3.5-2c-0.1-0.7-0.2-1.5,0-2.5c0-0.2,0.1-0.3,0.1-0.5c1.4-5.1,5.1-5.3,6.1-5.3
	c3.4,0,3.7,2.1,3.4,3.6H64.7z"/>
<path class="st1" d="M57.4,45.3c-0.3-1-1.5-1.4-3-1.4h-4.8L47,54.1h2.4l0.9-3.5h2.6c1.3,0,3.7-0.4,4.5-3.4l0-0.1
	C57.6,46.4,57.6,45.8,57.4,45.3z M54.9,47.2c-0.3,1-0.9,1.4-1.9,1.4h-2l0.7-2.7h1.9C54,45.9,55.2,45.8,54.9,47.2z"/>
<path class="st1" d="M45.1,43.9h-2.4l-0.5,0.8L36.9,53l-0.7,1.1h2.5l1.1-1.9h3.7l0.1,1.9h2.6L45.1,43.9z M40.8,50.5l1.3-2.2l1-1.7
	l0.3,3.9H40.8z"/>
<path class="st1" d="M29.7,43.9L27,54.1h5c2.3,0,4-1,4.6-3.1c0.9-3.3-2.1-3.3-3-3.3h-2.5l0.5-1.8h5.5l0.5-2H29.7z M32.6,49.7
	c0.6,0,1.7,0,1.4,1.3c-0.2,0.9-1.1,1.1-2,1.1h-2.1l0.7-2.4H32.6z"/>
<path class="st1" d="M11.2,43.9H8.7l-0.6,0.8l-6,9.3h2.5l1.1-1.9h3.7l0.2,1.9h2.6L11.2,43.9z M6.9,50.5l1.3-2.2l1.1-1.7l0.3,3.9H6.9
	z"/>
</svg>
