<?xml version="1.0" encoding="utf-8"?>
<!-- Generator: Adobe Illustrator 21.1.0, SVG Export Plug-In . SVG Version: 6.00 Build 0)  -->
<svg version="1.1" id="Layer_1" xmlns="http://www.w3.org/2000/svg" xmlns:xlink="http://www.w3.org/1999/xlink" x="0px" y="0px"
	 viewBox="0 0 300 64" style="enable-background:new 0 0 300 64;" xml:space="preserve">
<style type="text/css">
	.st0{fill:#FFFFFF;}
	.st1{fill:#1E3262;}
</style>
<g>
	<path class="st0" d="M62.7,32c0,17.3-14,31.5-31.1,31.5S0.5,49.3,0.5,32s14-31.5,31.1-31.5C48.9,0.3,62.7,14.5,62.7,32"/>
	<path class="st1" d="M1,32C1,15,14.8,1,31.6,1S62.2,15,62.2,32S48.4,63,31.6,63C14.8,62.7,1,49,1,32 M0,32c0,17.5,14.3,32,31.6,32
		c17.3,0,31.6-14.5,31.6-32c0-17.8-14.3-32-31.6-32C14.3-0.3,0,14.2,0,32"/>
	<path class="st1" d="M51.7,28.6c-0.3,0.3-0.5,0.5-0.8,0.5c-1.8,1.3-4.6,2.3-8.4,3.4c-7.9,2.1-13.8,2.6-20.4,4.1
		c-1.3,0.3-2.5,0.8-3.8,1.3c1.3,0.5,2.5,1.3,3.8,1.8c2.5-0.8,3.8-1,7.9-1.8c1.5-0.3,6.1-1,9.2-1.8C45.4,35.1,54,32.3,51.7,28.6
		 M47.9,21.2c-1.3-0.5-2.8-1-4.6-1.5c-0.8,0.5-1.5,1-2.8,1.5c2,0.3,3.6,1,5.4,1.5C46.4,22.7,47.7,21.4,47.9,21.2 M18.9,29.2
		c7.6-2.3,15.8-3.1,24-5.2c-3.3-0.8-5.1-1.3-8.4-0.8c-4.8,0.5-10.5,1.5-15,3.1c-1.8,0.5-11.5,3.4-8.7,7.2C11,33.3,12.7,31,18.9,29.2
		 M13.8,42.3c0,0.8,0.5,1.3,1.3,2.1c0-0.3,0.3-0.8,0.5-1C15,43.1,14.3,42.6,13.8,42.3 M17.3,41.8c0.5-0.3,1.3-0.8,2-1
		c-1-0.5-2.3-1-3.3-1.5c-0.5,0.3-1,0.8-1.3,1C15.5,41,16.3,41.5,17.3,41.8 M46.9,25.3c-1.5,0.8-3.8,1.5-6.9,2.3
		c-2.5,0.8-8.9,1.5-15.8,3.1c-2,0.5-8.2,1.8-11,4.4c0.8,0.8,1.3,0.8,2.3,1.3c1.3-0.8,2.8-1.5,5.4-2.1c4.1-1,7.4-1.5,11.2-2.3
		c3.8-0.5,11-2.1,14.8-3.6c1.3-0.5,2.5-1,3.3-1.8C49.7,26.3,47.2,25.3,46.9,25.3 M49.2,24c0.8,0.3,1.5,0.5,2,1
		c0.5-1,0.3-1.5-0.8-2.3C50.2,23,49.7,23.5,49.2,24 M13.3,37.9c-0.8-0.3-1.3-0.8-1.8-1c-0.3,0.8,0.3,1.5,1,1.8
		C12.7,38.5,13,38.2,13.3,37.9 M46.1,16.5c-0.3,0.5-0.8,1.3-1,1.5c1.3,0.3,2.3,0.8,3.6,1.3C48.4,18.1,47.2,17,46.1,16.5 M9.7,23
		c8.2-5.4,17.1-8.5,32.4-5.9c0.8-0.5,1.3-1,1.5-2.1c-3.8-1.3-7.9-1.8-13.3-1.8c-4.8,0.3-13.3,2.1-17.8,4.6L14,16
		c3.3-1.8,11.5-4.4,17.8-4.6c4.3,0,6.6,0.3,12,1.5c-0.5-0.8-1.5-1.3-3.1-2.1c-5.1-2.3-14.5-2.6-22.4,1c1-0.8,2-1.3,3.3-1.8
		c2.5-1.3,6.9-2.3,12-2.3c4.3,0,9.2,1.5,12.2,4.6c0.5,0.5,0.8,1.3,1,1.8c2.3,1.3,3.8,2.3,4.6,3.9c0.3,0.8,0.5,1.5,0.3,2.3
		c1,0.5,1.5,1,2,1.8c0.3,0.5,0.5,1.3,0.8,1.8c0,0.8,0.3,1.5-0.5,2.6c0.8,0.5,1.5,1.5,1.5,2.1c0.5,1.8-0.8,3.6-2.3,5.2
		c-1.8,1.5-5.6,3.4-8.9,4.4c-6.4,1.5-12,2.3-16.3,3.1c2,0.5,4.8,1,9.2,1c9.4,0,17.8-4.6,17.8-4.6s-0.3,0.5-0.3,1
		c-6.1,3.6-15.5,5.2-19.6,5.2c-4.1-0.3-7.6-0.8-11-1.8c-1,0.3-2,0.5-3.1,1c5.1,2.3,9.2,2.8,13.5,3.4c4.6,0.3,12-0.8,18.4-3.1
		c-0.3,0.3-0.5,0.8-0.8,1c-3.3,1.8-10.2,3.4-13.5,3.6c-3.3,0.3-7.6,0-11.2-0.8c-3.1-0.5-5.6-1.5-8.4-2.8c-0.5,0.3-0.8,0.8-0.8,1.3
		c10.5,5.4,20.1,5.7,31.4,2.1l-1,1c-12.2,5.2-21.7,3.1-29.3-0.5c-0.3,0-0.5-0.3-0.8-0.3c0.8,1.3,6.4,5.4,12.7,5.9
		c4.3,0.3,9.7-0.3,12.7-1.5l-1.8,1c-1.5,0.8-5.6,2.6-11.2,2.1c-7.6-0.5-11.7-3.9-13.8-5.7c-1-0.8-1.3-1.8-1.5-2.8
		c-1.8-1-2.8-1.8-3.6-3.4c-0.5-0.8-0.5-1.8-0.3-2.6l0.3-0.8c-0.8-0.5-1.8-1.3-2-1.8c-0.8-1.3-0.3-2.6,0.3-3.4c-0.5-0.5-0.8-1-1-1.5
		c-0.3-0.5-0.3-1.3-0.3-1.8c0.3-1,0.8-2.1,1.5-3.1c1.5-1.8,4.3-3.4,8.7-4.9c4.3-1.5,6.1-1.8,9.4-2.6c3.8-0.8,8.4-1.3,12.2-2.6
		c-10.7-1.8-21.7-0.3-30.8,6.2L9.7,23z"/>
	<path class="st1" d="M103.2,26.3l1.3,8.5H102L103.2,26.3z M93.5,45.9h6.6l0.8-4.9h4.6l0.8,4.9h6.6l-5.6-28.1h-8.2L93.5,45.9z"/>
	<path class="st1" d="M119,28.6c1,0,3.1-0.8,3.1-2.8c0-2.3-2.3-2.6-2.8-2.6c-0.8,0-2,0-3.6,0.8v-6.2c2.3-0.5,3.8-0.8,5.6-0.8
		c5.4,0,7.6,3.6,7.6,7.5c0,3.6-2,5.7-4.1,6.5v0.3c1.8,0.5,4.3,2.3,4.3,6.7c0,5.4-3.6,8.3-8.4,8.3c-2.5,0-4.1-0.3-6.1-1.5v-5.9
		c1.8,0.8,3.1,0.8,4.3,0.8c2,0,2.8-1.5,2.8-2.6c0-1.5-1-2.6-3.3-2.6H116v-5.9h3.1V28.6z"/>
	<polygon class="st1" points="132,17.8 149.6,17.8 149.6,45.9 143.2,45.9 143.2,24.5 138.7,24.5 138.7,45.9 132,45.9 	"/>
	<path class="st1" d="M159.8,24h1.5c1.5,0,2.3,1,2.3,3.4c0,3.1-1.5,3.4-2.3,3.4h-1.5V24z M153.4,45.9h6.4v-9.3h2
		c6.4,0,8.4-5.7,8.4-9.5c0-3.6-2.3-9.3-8.4-9.3h-8.7v28.1H153.4z"/>
	<path class="st1" d="M182.2,39.5c-2.3,0-3.3-2.6-3.3-7.5s1.3-7.5,3.3-7.5c2.3,0,3.3,2.6,3.3,7.5C185.6,36.6,184.5,39.5,182.2,39.5
		 M182.2,46.2c7.6,0,10.2-7.2,10.2-14.5s-2.5-14.5-10.2-14.5c-7.6,0-10.2,7.2-10.2,14.5S174.6,46.2,182.2,46.2"/>
	<path class="st1" d="M226.6,40.3v-6.5h1c0.8,0,2.8,0,2.8,2.8s-2,3.4-2.8,3.4L226.6,40.3L226.6,40.3z M220.5,45.9h7.6
		c1.8,0,8.7-0.8,8.7-9.3c0-7.2-5.4-8.5-8.9-8.5h-1.3v-3.6h8.4v-6.7h-14.8v28.1H220.5z"/>
	<polygon class="st1" points="260,17.8 266.1,17.8 266.1,27.9 270.7,27.9 270.7,17.8 277.1,17.8 277.1,45.9 270.7,45.9 270.7,34.6 
		266.1,34.6 266.1,45.9 260,45.9 	"/>
	<polygon class="st1" points="281.1,17.8 287.5,17.8 287.5,27.9 288.8,27.9 292.4,17.8 299.2,17.8 294.4,31.2 300,45.9 292.6,45.9 
		289,34.6 287.5,34.6 287.5,45.9 281.1,45.9 	"/>
	<polygon class="st1" points="81.1,17.8 94.3,17.8 94.3,24.8 87.7,24.8 87.7,45.9 81.1,45.9 	"/>
	<polygon class="st1" points="195.5,17.8 200.8,17.8 205.7,24.5 210.5,17.8 216.1,17.8 216.1,45.9 209.5,45.9 209.5,28.6 
		205.7,33.6 201.9,28.6 201.9,45.9 195.5,45.9 	"/>
	<path class="st1" d="M247.5,26.3l1.3,8.5h-2.3L247.5,26.3z M238.1,45.9h6.6l0.8-4.9h4.6l0.8,4.9h6.6l-5.9-28.1h-8.2L238.1,45.9z"/>
</g>
</svg>
