<?xml version="1.0" encoding="utf-8"?>
<!-- Generator: Adobe Illustrator 21.1.0, SVG Export Plug-In . SVG Version: 6.00 Build 0)  -->
<svg version="1.1" id="Layer_1" xmlns="http://www.w3.org/2000/svg" xmlns:xlink="http://www.w3.org/1999/xlink" x="0px" y="0px"
	 viewBox="0 0 328 50" style="enable-background:new 0 0 328 50;" xml:space="preserve">
<style type="text/css">
	.st0{fill:#00B3E1;}
	.st1{fill:#58585A;}
</style>
<path class="st0" d="M25.2,0.2C11.5,0.2,0.4,11.3,0.4,25s11.1,24.8,24.8,24.8S50,38.7,50,25S38.9,0.2,25.2,0.2 M20,37.2
	c0.2,0.1,0.9,0.5,1.1,1.4c0.1,0.6,0,1.2-0.3,1.7c-0.4,0.6-1,0.9-1.8,0.9c-0.4,0-0.8-0.1-1.2-0.3l-1.2-0.5c-5.1-2.7-8.2-8.1-8.2-14.1
	v-2.5c0-6,3.2-11.5,8.2-14.2l1.1-0.5c0.4-0.2,0.8-0.3,1.2-0.3c0.8,0,1.4,0.3,1.8,0.9c0.3,0.5,0.4,1,0.3,1.7c-0.2,1-1.1,1.4-1.1,1.4
	c-3,1.3-4.9,4.4-4.9,7.8v8.8C15.1,32.8,17,35.8,20,37.2 M41.9,26.2c0,6-3,11.5-8.1,14.1l-1.2,0.5c-0.4,0.2-0.8,0.3-1.2,0.3
	c-0.8,0-1.4-0.3-1.8-0.9c-0.3-0.5-0.4-1.1-0.3-1.7c0.2-0.9,0.9-1.3,1-1.4c3-1.4,4.9-4.4,4.9-7.8v-8.8c0-3.4-1.9-6.4-4.9-7.8
	c0,0-0.9-0.4-1.1-1.4c-0.1-0.6,0-1.2,0.3-1.7c0.4-0.6,1-0.9,1.8-0.9c0.4,0,0.8,0.1,1.2,0.3l1.1,0.5c5.1,2.7,8.4,8.1,8.4,14.2
	L41.9,26.2z"/>
<g id="Page-1">
	<g id="Artboard" transform="translate(-88.000000, -154.000000)">
		<g id="openbank_logo_pixel_white_ru" transform="translate(88.000000, 154.000000)">
			<g id="Layer_1_1_">
				<path id="Shape" class="st1" d="M232.3,13.8v21.6h-4.9V20.6l-10.8,14.8h-3.9V17.7c0-2.6-2-2.5-2-2.5v-1.5h6.9v14.8l10.8-14.8
					H232.3z"/>
				<path id="Shape_1_" class="st1" d="M242.1,22.6c1,0,10.8,0,10.8,0v-1.2c0-3.4-2.9-5.7-5.9-5.7C244.2,15.7,242.1,18.2,242.1,22.6
					z M247.1,35.4c-5.8,0.3-10.9-4.1-10.8-9.8v-1.2c-0.1-6.2,3-10.7,10.8-10.7c7.8,0,10.8,4.9,10.8,10.8h-15.7v3.9
					c0.2,2.8,1.6,4.9,4.9,4.9c3,0,5.4-1.2,6.9-3h2.9C254.9,33.2,250.3,35.7,247.1,35.4z"/>
				<path id="Shape_2_" class="st1" d="M130,35.4h-5.9l-2.9-5.9c0,0-2-3.9-2.9-3.9h-3v9.8h-4.9V17.7c0.1-1.3-0.7-2.3-2-2.5v-1.5h6.9
					v8.9h2c1-0.2,1.8-1.1,2.2-2.1c3.5-5.7,3.1-6.8,4.7-6.8h4.9v1.5c-3.1,0-3.9,6.4-6.9,8.4c1.4,0.5,2.2,2.6,5.4,8.4c0,0,0.9,2,2.5,2
					V35.4z"/>
				<path id="Shape_3_" class="st1" d="M139.9,15.7v-2l-6.9,0v1.5c0,0,2,0,2,2.5v27.5h4.9V33.4c0,0,1,2,6.9,2c6,0,8.9-6.4,8.9-11.8
					c0-5.9-3.9-10.3-9.3-10.3C142.3,13.3,141,14.2,139.9,15.7z M149.7,26.9c0,2.5-1.9,5.9-4.6,6h-0.4c-2.5,0-4.5-2.8-4.8-4.7v-7.1
					c0.2-2,1-5.4,4.8-5.4c3,0,5,1,5,5.9V26.9z"/>
				<path id="Shape_4_" class="st1" d="M63.2,23.6v2c0,4.8,5.4,9.8,11.8,9.8c5.9,0,11.8-4.6,11.8-9.8v-2c0-4.8-5-9.8-11.8-9.8
					C67.3,13.8,63.2,19.9,63.2,23.6z M80.9,27.5c0,3.1-2.3,5.8-5.9,5.9c-3.6-0.1-5.9-2.8-5.9-5.9v-6.9c0-2.5,2.6-4.8,5.9-4.9
					c3.5,0.1,5.8,2.6,5.9,4.9V27.5z"/>
				<path id="Shape_5_" class="st1" d="M186.1,13.8h-6.9v1.5c0,0,2.1,0,2,2.5v17.7h4.9V14.5V13.8z"/>
				<path id="Shape_6_" class="st1" d="M165.4,13.8h-6.9v1.5c0.1,0,2-0.1,2,2.2v17.9h11.8c3.7-0.1,5.9-2.2,5.9-5.4v-1.5
					c0-3.6-1.8-5.9-5.9-5.9h-6.9V13.8z M165.4,24.6h3.9c1.6,0,3.9,1.1,3.9,4.4c0,3.3-2,3.9-3.9,3.9h-3.9V24.6z"/>
				<path id="Shape-Copy" class="st1" d="M106.4,13.8v3.9h-2c0,0,0.1-2-1.5-2h-3.4v19.7h-4.9V15.7h-3.4c-1.4,0-1.5,2-1.5,2h-2v-3.9
					H106.4z"/>
				<path id="Shape-Copy_1_" class="st1" d="M207.7,13.8v3.9h-2c0,0,0-2-1.6-2h-3.4v19.7h-4.9V15.7h-3.5c-1.4,0-1.4,2-1.4,2h-2v-3.9
					H207.7z"/>
				<polygon id="Rectangle-path" class="st1" points="271.6,0 272.6,0 272.6,49.2 271.6,49.2 				"/>
				<path id="БАНК" class="st1" d="M293.3,26.6c0-1.8-1.2-2.7-3.2-2.7h-1.2v-2.7h3.8l-0.2-1.2h-4.9v9.5h2.3
					C291.9,29.5,293.3,28.5,293.3,26.6L293.3,26.6z M292,26.6c0,1.2-0.8,1.7-2.1,1.7h-1.1V25h1.2C291.3,25,292,25.5,292,26.6
					L292,26.6z M295,29.5h1.3l1.1-2.8h3.9l1.1,2.9l1.3-0.3L300,20h-1.3L295,29.5z M299.4,21.5l1.5,4h-3L299.4,21.5z M313.7,29.5V20
					h-1.3v3.9h-4.8V20h-1.3v9.5h1.3v-4.4h4.8v4.4H313.7z M324.2,29.3l-4.4-4.8L324,20h-1.7l-3.9,4.3V20h-1.3v9.5h1.3v-4.8l4.4,4.9
					L324.2,29.3z"/>
			</g>
		</g>
	</g>
</g>
</svg>
