<?xml version="1.0" encoding="utf-8"?>
<!-- Generator: Adobe Illustrator 21.1.0, SVG Export Plug-In . SVG Version: 6.00 Build 0)  -->
<svg version="1.1" id="Layer_1" xmlns="http://www.w3.org/2000/svg" xmlns:xlink="http://www.w3.org/1999/xlink" x="0px" y="0px"
	 viewBox="0 0 1000 200" style="enable-background:new 0 0 1000 200;" xml:space="preserve">
<style type="text/css">
	.st0{fill:#008A52;}
	.st1{fill:#FFFFFF;}
	.st2{fill:#FFCA38;}
</style>
<g id="Page_1">
	<g id="Layer_1_1_">
		<g>
			<path class="st0" d="M222.5,151.4h-13.2V73.8h29.9c8.5,0,14.8,2.3,19,6.9c4.1,4.6,6.2,9.9,6.2,16.2c0,7.1-2.2,12.9-6.7,17.2
				c-4.5,4.4-10.1,6.6-17,6.6h-18.2V151.4L222.5,151.4z M222.5,108.6h15.6c4.1,0,7.2-1.1,9.3-3.2c2.1-2.1,3.2-4.9,3.2-8.5
				c0-3.2-1-5.9-3-8.2c-2-2.3-5.6-3.4-10.7-3.4h-14.4L222.5,108.6L222.5,108.6z M293.8,152.6c-8,0-14.1-3.1-18.3-9.2
				c-4.2-6.1-6.3-13.1-6.3-21c0-8.5,2.3-15.6,7-21.2c4.7-5.6,10.8-8.5,18.4-8.5c7.2,0,13.2,2.8,17.8,8.3c4.6,5.5,7,12.7,7,21.4
				c0,9.1-2.4,16.3-7.2,21.9C307.3,149.8,301.2,152.6,293.8,152.6L293.8,152.6z M294.2,141.9c8.2,0,12.3-6.5,12.3-19.5
				c0-5.9-1-10.5-2.9-13.9c-2-3.4-5-5.1-9-5.1c-4.2,0-7.3,1.8-9.4,5.3c-2,3.5-3,8.2-3,14c0,6.2,1.1,11,3.2,14.3
				C287.6,140.3,290.5,141.9,294.2,141.9L294.2,141.9z M361.8,130.3l10.5,1.1c-1.4,7.2-4,12.5-7.9,16c-3.9,3.4-8.6,5.2-14.1,5.2
				c-7.4,0-13.2-2.9-17.2-8.7s-6-12.9-6-21.3c0-8.6,2.2-15.8,6.6-21.4c4.4-5.6,10.2-8.5,17.5-8.5c11.8,0,18.8,6.6,21,19.8l-10.5,1.5
				c-0.9-7.1-4.2-10.7-9.9-10.7c-4.1,0-7.1,1.9-9,5.8c-1.9,3.8-2.8,8.5-2.8,14c0,5.8,1,10.3,2.9,13.4c1.9,3.1,4.7,4.7,8.1,4.7
				C356.5,141.3,360,137.6,361.8,130.3L361.8,130.3z M412.8,130.3l10.5,1.1c-1.4,7.2-4,12.5-7.9,16c-3.9,3.4-8.6,5.2-14.1,5.2
				c-7.4,0-13.2-2.9-17.2-8.7c-4-5.8-6-12.9-6-21.3c0-8.6,2.2-15.8,6.6-21.4c4.4-5.6,10.2-8.5,17.5-8.5c11.8,0,18.8,6.6,21,19.8
				l-10.5,1.5c-0.9-7.1-4.2-10.7-9.9-10.7c-4.1,0-7.1,1.9-9,5.8c-1.9,3.8-2.8,8.5-2.8,14c0,5.8,1,10.3,2.9,13.4
				c1.9,3.1,4.7,4.7,8.1,4.7C407.5,141.3,411,137.6,412.8,130.3L412.8,130.3z M466.9,133.1l11,1.6c-1.4,5.2-4.2,9.5-8.3,12.9
				c-4.1,3.4-9.3,5.1-15.6,5.1c-7.5,0-13.5-2.7-18.1-8c-4.6-5.3-6.9-12.6-6.9-21.7c0-8.7,2.3-15.8,6.9-21.5
				c4.6-5.7,10.8-8.5,18.7-8.5c7.7,0,13.6,2.8,17.9,8.4c4.2,5.6,6.3,12.8,6.3,21.6l0,1.5h-37.1c0,3.9,0.3,7,1,9.4
				c0.7,2.4,2.1,4.4,4.2,6.1c2.1,1.7,4.7,2.6,7.7,2.6C460.7,142.4,464.8,139.3,466.9,133.1L466.9,133.1z M466.2,115.9
				c0-4.1-1.2-7.5-3.5-10.1c-2.3-2.6-5.1-3.9-8.5-3.9c-3.4,0-6.2,1.2-8.4,3.7c-2.3,2.5-3.6,5.9-4,10.4L466.2,115.9L466.2,115.9z
				 M481.7,151.4L499,94h14.4l16.8,57.4h-12.7L505.3,104l-13.6,47.4H481.7L481.7,151.4z M537,151.4V94h12.2v21h14.2
				c6.2,0,10.7,1.8,13.6,5.3c2.9,3.5,4.4,7.9,4.4,13.1c0,5.8-1.6,10.2-4.7,13.3c-3.1,3.1-7.6,4.7-13.2,4.7H537L537,151.4z
				 M549.2,141.3H561c3,0,5.1-0.6,6.4-1.9c1.3-1.3,2-3.3,2-6.2c0-5.9-2.8-8.9-8.4-8.9h-11.8L549.2,141.3L549.2,141.3z M631.6,151.4
				h-13.9l-11.4-20.9l-12.5,20.9h-10.5l18-29.5L585.7,94h14l8.9,16.9L618.6,94h10.2l-15.2,24.9L631.6,151.4L631.6,151.4z
				 M658.6,152.6c-8,0-14.1-3.1-18.3-9.2c-4.2-6.1-6.3-13.1-6.3-21c0-8.5,2.3-15.6,7-21.2c4.7-5.6,10.8-8.5,18.4-8.5
				c7.2,0,13.2,2.8,17.8,8.3c4.6,5.5,7,12.7,7,21.4c0,9.1-2.4,16.3-7.2,21.9C672.1,149.8,666,152.6,658.6,152.6L658.6,152.6z
				 M659,141.9c8.2,0,12.3-6.5,12.3-19.5c0-5.9-1-10.5-2.9-13.9c-2-3.4-5-5.1-9-5.1c-4.2,0-7.3,1.8-9.4,5.3c-2,3.5-3.1,8.2-3.1,14
				c0,6.2,1.1,11,3.2,14.3C652.3,140.3,655.3,141.9,659,141.9L659,141.9z M707,126.3v-8.9c5.8,0,9.5-0.8,11-2.3
				c1.5-1.5,2.2-3.3,2.2-5.4c0-2.2-0.7-3.9-2.1-5.3c-1.4-1.4-3.4-2-6-2c-5.6,0-8.9,2.8-10,8.5l-11.2-2.1c2.4-10.7,9.7-16,22-16
				c6.6,0,11.7,1.5,15.1,4.5c3.4,2.9,5.1,6.7,5.1,11.2c0,5.8-3.3,9.9-10,12.5c7.7,2.2,11.6,6.8,11.6,13.8c0,5.1-1.9,9.4-5.6,12.8
				c-3.7,3.4-9.1,5.1-16.1,5.1c-12.8,0-20.6-5.9-23.5-17.6l11.2-2.1c1.5,6.8,5.2,10.2,11.2,10.2c3.1,0,5.5-0.8,7.2-2.4
				c1.7-1.6,2.6-3.8,2.6-6.5c0-2-0.6-3.7-1.8-5.1c-1.2-1.4-2.7-2.2-4.5-2.5C713.7,126.4,710.9,126.3,707,126.3L707,126.3z
				 M746,151.4V73.8h48.9v13.9h-32.1v16.9h12.3c6.4,0,11.4,0.6,15.2,2c3.7,1.3,6.8,3.8,9.1,7.5c2.4,3.7,3.6,8.2,3.6,13.6
				c0,7.5-2.2,13.3-6.4,17.5c-4.3,4.2-10.3,6.2-18,6.2H746L746,151.4z M762.7,136.7h13.2c3.1,0,5.5-0.9,7.2-2.6
				c1.7-1.7,2.5-4,2.5-6.8c0-6-3.7-9-11.1-9h-11.8V136.7L762.7,136.7z M860,151.4h-15.4c-0.5-2.3-0.8-5.3-0.8-9
				c-2.7,4.1-5.4,6.8-8.1,8.2c-2.7,1.4-5.8,2-9.2,2c-5,0-9.1-1.5-12.3-4.4c-3.1-2.9-4.7-6.9-4.7-11.8c0-3.6,0.9-6.9,2.7-9.9
				c1.8-3,4.8-5.4,8.8-7.1c4-1.7,11.4-3,22-3.8v-3.3c0-5.6-2.6-8.3-7.8-8.3c-5.6,0-8.7,2.8-9.4,8.3l-14.7-1.5
				c0.9-6.5,3.8-11.2,8.7-13.9c4.9-2.7,10.3-4.1,16.5-4.1c3.7,0,7.1,0.5,10.4,1.4c3.2,0.9,5.8,2.3,7.6,4.1c1.8,1.8,3.1,3.7,3.7,5.8
				c0.7,2,1,5.6,1,10.6v26C859,145.7,859.4,149.2,860,151.4L860,151.4z M843.2,123.9c-11.2,1.2-16.7,4.8-16.7,10.8
				c0,2,0.6,3.7,1.8,5.2c1.2,1.4,2.8,2.2,5,2.2c2.8,0,5.2-1.2,7.1-3.7c1.9-2.5,2.9-5.6,2.9-9.2V123.9L843.2,123.9z M872.2,151.4V94
				h15.9v20.7h16.6V94h15.9v57.4h-15.9V127h-16.6v24.4H872.2L872.2,151.4z M968.4,113.7l18.6,37.7h-16.7l-12.6-25.6l-8.2,9.1v16.5
				h-15.9V94h15.9v14.3c0,2.3-0.1,5.7-0.2,10.1c1.2-2,2.8-3.9,4.5-5.9L970.2,94H985L968.4,113.7L968.4,113.7z"/>
			<g>
				<path class="st0" d="M92.7,193c42.6,0,77.4-35.4,77.4-78.7c0-43.3-34.8-78.7-77.4-78.7c-42.6,0-77.4,35.3-77.4,78.7
					C15.4,157.7,50.1,193,92.7,193L92.7,193z"/>
				<path class="st1" d="M92.7,34.5c-43.3,0-78.6,35.9-78.6,79.8c0,43.9,35.3,79.8,78.6,79.8c43.3,0,78.6-35.9,78.6-79.8
					C171.3,70.4,136,34.5,92.7,34.5L92.7,34.5z M78.3,167.5v23c-2.7-0.5-5.4-1.2-8-2V119h11.4c2.9,0,5,0.6,6.2,1.7
					c1.2,1.1,1.7,3.2,1.7,6.2v32.7c0,3-0.6,5-1.7,6.1c-1.8,1.8-5.1,1.8-7.9,1.8C79.5,167.5,78.9,167.5,78.3,167.5L78.3,167.5z
					 M92.7,191.9c-3.7,0-7.4-0.3-11-0.8v-20.2c5.3,0,8.7-1.8,10.3-5.4v20.2c0,2.5,0.4,4.6,1.2,6.2C93.1,191.8,92.9,191.9,92.7,191.9
					L92.7,191.9z M114.4,144.3h-7.8v-17.9h-3.4v60.4h3.4v-39.1h7.8v38c0,1.2-0.1,2.2-0.3,3.1c-5.5,1.6-11.3,2.7-17.2,3
					c-1.4-1.6-1.6-4.1-1.6-6.1v-58.1c0-3,0.6-5.1,1.7-6.3c1.1-1.2,3.2-1.8,6.1-1.8c3,0,7.3-0.4,9.5,1.8c1.1,1.2,1.7,3.3,1.7,6.3
					V144.3L114.4,144.3z M139.5,175.5c-2.6,2.1-5.4,4-8.4,5.8V148h-3.6v35.2c-2.7,1.4-5.5,2.7-8.4,3.8v-38c0-3.5,0.8-6.1,4.4-7.3
					l-3.9-21.5h7.9l1.3,23.5h1l1.3-23.5h8.3l-4.5,21.5c3.7,1.3,4.5,3.6,4.5,7.3L139.5,175.5L139.5,175.5z M117.8,141.5v-13.4l2.3,12
					C119.2,140.5,118.4,141,117.8,141.5L117.8,141.5z M142.3,143.7c-0.6-1.6-1.8-2.8-3.7-3.6l3.7-19.3V143.7L142.3,143.7z
					 M168.2,125.1c0,0.3-0.1,0.7-0.1,1.1h-12.8v3.1h1.9c3.7-0.1,7.8-0.2,9.8,2.5c-1.7,7.3-4.3,14.2-7.9,20.5v-16.8h-3.8v23
					c-2.6,3.8-5.5,7.3-8.7,10.6c-0.1,0.1-0.3,0.3-0.4,0.4v-49.6h22.1L168.2,125.1L168.2,125.1z M115.6,116.8l0.8,3.9
					c-1.7-3.2-5-4.7-9.7-4.7h-3.4c-5.7,0-9.2,2.3-10.6,6.9c-1.2-4.8-4.9-7.2-10.9-7.2H66.9v71.6c-10.6-3.9-20.2-10.2-28-18.1
					c-13.8-14-22.4-33.4-22.4-54.7c0-21.3,8.6-40.7,22.4-54.8c13.8-14,32.9-22.7,53.8-22.7c21,0,40,8.7,53.8,22.7
					c13.8,14,22.4,33.4,22.4,54.8c0,0.8,0,1.6-0.1,2.4H115.6L115.6,116.8z M78.3,160.7h3.4v-35h-3.4V160.7L78.3,160.7z"/>
				<polygon class="st1" points="27.1,72.3 27.2,74.8 27.6,77.3 28.2,79.5 28.9,81.8 29.7,83.9 30.8,85.9 31.9,87.9 33.1,89.8 
					34.5,91.6 36,93.4 39.1,96.9 42.4,100.2 45.8,103.5 49.2,106.7 52.6,110 55.7,113.5 57.2,115.3 58.6,117.1 59.8,119 60.9,120.9 
					62,123 62.8,125.2 63.5,127.3 64.1,129.7 64.4,132.1 64.6,134.6 64.5,155.7 64.4,153.2 64,150.8 63.4,148.5 62.7,146.3 
					61.9,144.2 60.8,142 59.7,140.1 58.5,138.2 57.1,136.4 55.6,134.6 52.5,131.1 49.2,127.8 45.8,124.6 42.4,121.3 39,117.9 
					35.9,114.4 34.4,112.7 33,110.8 31.8,109 30.7,107 29.7,104.9 28.7,102.8 28.1,100.6 27.5,98.3 27.2,95.9 27,93.3 				"/>
				<polygon class="st1" points="23.6,99.1 23.8,101.8 24.1,104.3 24.8,106.7 25.5,109.1 26.6,111.4 27.7,113.5 28.9,115.6 
					30.2,117.6 31.7,119.5 33.3,121.5 36.7,125.1 40.4,128.6 44.2,132.1 47.8,135.6 51.5,139.1 54.9,142.7 56.5,144.6 58,146.5 
					59.4,148.6 60.6,150.6 61.8,152.8 62.7,155.1 63.4,157.4 64.1,159.9 64.4,162.4 64.6,165.1 64.5,187.5 64.3,184.8 63.9,182.3 
					63.3,179.8 62.6,177.5 61.6,175.2 60.4,173 59.3,170.9 57.9,168.9 56.4,167 54.8,165.1 51.4,161.5 47.7,157.9 44,154.5 
					40.3,151 36.6,147.4 33.2,143.7 31.6,141.9 30.1,139.9 28.7,137.9 27.5,135.8 26.4,133.6 25.4,131.4 24.7,129 24.1,126.6 
					23.7,124.1 23.5,121.3 				"/>
				<path class="st2" d="M168,86.8h-49.5c-0.5-1.2-1.3-2-2.1-2c-0.9,0-1.6,0.8-2.1,2h-1.8c-0.5-1.2-1.2-2-2.1-2
					c-0.9,0-1.6,0.8-2.1,2h-1.4c1.1-1.4,1.7-3.2,1.7-5.1c0-5-3.6-9-9-9c-5.4,0-9.8,4-9.8,9c0,2.3,1.7,4.4,2.3,5.9
					c-0.9,0.2-1.6,1-1.6,2c0,1,0.8,1.9,1.8,2c-0.6,1.9-2.5,3.4-2.5,6.4c0,5,4.4,9,9.8,9c5.4,0,9-4,9-9c0-1.9-0.6-3.6-1.7-5h1.4
					c0.5,1.2,1.3,2,2.1,2c0.9,0,1.6-0.8,2.1-2h1.8c0.5,1.2,1.3,2,2.1,2c0.9,0,1.6-0.8,2.1-2h36.4v2h-1.7v4.1h1.7l1.6,2.2l-3.3-0.5
					v5.5h3.3v-2.5h4.9v2.5h3.3v-5.5l-3.3,0.5l1.6-2.2h1.7v-4.1h-1.7v-2h5c1.3,0,2.3-1.1,2.3-2.4v-1.4
					C170.3,87.9,169.3,86.8,168,86.8L168,86.8z M101.1,86.2c1.6,0.1,2.8,1.6,2.8,3.7c0,2-1.2,3.6-2.8,3.7l-0.8,2
					c2.2,0,4.6,0.3,4.6,2.8c0,3.1-2,5.5-5.4,5.5c-3.4,0-6.2-2.5-6.2-5.5c0-2.4,0.9-2.7,3.3-3.5l-0.7-1.4l1.5-1.4
					c-0.9-0.4-1.5-1.2-1.5-2.2c0-1,0.6-1.9,1.5-2.2l-1.3-1l0.5-1.4c-2.4-0.8-3.3-1.1-3.3-3.5c0-3.1,2.8-5.5,6.2-5.5
					c3.4,0,5.4,2.5,5.4,5.5c0,2.5-2.1,2.8-4.6,2.8L101.1,86.2L101.1,86.2z"/>
				<path class="st1" d="M89.2,98.1c0-3,1.7-4.5,2.3-6.1c-0.9-0.3-1.6-1.2-1.6-2.3c0-1,0.6-1.9,1.4-2.2c-0.6-1.4-2.1-3.4-2.2-5.7
					c0-5.3,4.6-9.5,10.2-9.5c5.6,0,9.4,4.3,9.4,9.5c0,1.7-0.5,3.3-1.3,4.6h0.3c0.5-1.2,1.3-2,2.4-2c1.1,0,1.9,0.9,2.4,2h1.2
					c0.5-1.2,1.3-2,2.4-2c1.1,0,1.9,0.9,2.4,2H168v0.4v0.4h-49.8l-0.1-0.3c-0.5-1.2-1.2-1.8-1.7-1.8c-0.6,0-1.3,0.6-1.7,1.8
					l-0.1,0.3h-2.3L112,87c-0.5-1.2-1.2-1.8-1.7-1.8c-0.6,0-1.3,0.6-1.7,1.8l-0.1,0.3H106l0.5-0.7c1-1.4,1.6-3,1.6-4.8
					c0-4.8-3.4-8.6-8.6-8.6c-5.2,0-9.4,3.9-9.4,8.6c0,2.1,1.6,4.1,2.3,5.8l0.2,0.5L92,88.1c-0.7,0.2-1.3,0.8-1.2,1.6
					c0,0.8,0.6,1.5,1.4,1.6l0.5,0.1l-0.1,0.4c-0.6,2.1-2.5,3.4-2.4,6.3c0,4.7,4.2,8.6,9.4,8.6c5.2,0,8.6-3.8,8.6-8.6
					c0-1.8-0.6-3.4-1.6-4.8l-0.5-0.7h2.5l0.1,0.3c0.5,1.2,1.2,1.8,1.7,1.8c0.6,0,1.3-0.6,1.7-1.8l0.1-0.3h2.3l0.1,0.3
					c0.4,1.2,1.2,1.8,1.7,1.8c0.6,0,1.3-0.6,1.7-1.8l0.1-0.3h37.1v2.9h-1.7v3.2h1.5l2.3,3.2l-3.8-0.6v4.5h2.5v-2.5h5.7v2.5h2.5v-4.5
					l-3.8,0.5l2.3-3.2h1.5v-3.2h-1.7v-2.9h5.5c1,0,1.9-0.9,1.9-2v-1.4c0-1.1-0.9-2-1.9-2v-0.4v-0.4c1.5,0,2.7,1.3,2.7,2.8v1.4
					c0,1.5-1.2,2.8-2.8,2.8h-4.6v1.2h1.7v4.9h-1.9l-0.9,1.2l2.8-0.4v6.4h-4.1v-2.5h-4.1v2.5h-4.1v-6.4l2.8,0.4l-0.9-1.2h-1.9v-4.9
					h1.7v-1.2h-35.7c-0.5,1.2-1.3,2-2.4,2c-1.1,0-1.9-0.9-2.4-2h-1.2c-0.5,1.2-1.3,2-2.4,2c-1.1,0-1.9-0.9-2.4-2h-0.3
					c0.8,1.4,1.3,2.9,1.3,4.6c0,5.2-3.8,9.5-9.4,9.5C93.9,107.5,89.2,103.3,89.2,98.1L89.2,98.1z M99.5,104.2c-3.6,0-6.6-2.6-6.6-6
					c0-1.2,0.2-2.1,0.9-2.7c0.6-0.5,1.3-0.8,2.2-1.1l-0.6-1.3l1.3-1.2c-0.7-0.5-1.2-1.4-1.2-2.3c0-0.9,0.4-1.8,1.1-2.3l-1.1-0.8
					l0.5-1.4c-1-0.3-1.7-0.6-2.3-1.1c-0.6-0.6-0.9-1.4-0.9-2.7c0-3.3,3-5.9,6.6-5.9c1.8,0,3.3,0.7,4.3,1.8c1,1.1,1.5,2.6,1.5,4.2
					c0,1.4-0.6,2.3-1.6,2.7c-0.8,0.4-1.7,0.5-2.8,0.5l0.5,1c1.7,0.2,2.9,2,2.9,4c0,2-1.2,3.8-2.9,4l-0.5,1.2c0.9,0,1.9,0.1,2.7,0.5
					c1,0.4,1.8,1.3,1.7,2.7c0,1.6-0.5,3.1-1.5,4.2C102.8,103.6,101.3,104.2,99.5,104.2L99.5,104.2L99.5,104.2z M93.7,81.5
					c0,1.2,0.2,1.7,0.6,2.1c0.4,0.4,1.2,0.7,2.4,1.1l0.4,0.1l-0.5,1.6l1.7,1.3l-0.7,0.3c-0.7,0.3-1.2,1-1.2,1.8
					c0,0.8,0.5,1.5,1.2,1.8l0.6,0.3l-1.8,1.6l0.8,1.6l-0.5,0.1c-1.2,0.4-2,0.7-2.4,1.1c-0.4,0.4-0.6,0.9-0.6,2.1
					c0,2.8,2.6,5.1,5.8,5.1c3.2,0,5-2.2,5-5.1c0-1.1-0.5-1.6-1.2-2c-0.8-0.3-1.9-0.4-3-0.4h-0.6l1.2-2.8l0.3,0
					c1.2,0,2.4-1.4,2.4-3.2s-1.1-3.2-2.4-3.2l0-0.4l0.4-0.2l-0.4,0.2l0,0.4l-0.3,0l-1.2-2.7h0.7c1.2,0,2.3-0.1,3.1-0.4
					c0.7-0.3,1.1-0.8,1.1-2c0-2.9-1.8-5.1-5-5.1C96.2,76.4,93.7,78.8,93.7,81.5L93.7,81.5z"/>
				<polygon class="st2" points="65.9,101.3 65.9,113.7 84.3,95.6 84.3,83.3 				"/>
				<path class="st1" d="M65.4,101.3v-0.2l19.3-18.8v13.4l-19.3,19V101.3L65.4,101.3z M66.3,112.7l17.6-17.3V84.3l-17.6,17.2V112.7
					L66.3,112.7z"/>
				<polygon class="st2" points="65.9,56 65.9,68.4 84.3,50.3 84.3,38 				"/>
				<path class="st1" d="M65.4,56v-0.2L84.7,37v13.4l-19.3,19V56L65.4,56z M66.3,67.4l17.6-17.3V39L66.3,56.2V67.4L66.3,67.4z"/>
				<polygon class="st1" points="51.1,32.5 51.1,6.4 53,6.4 53,7.1 53,6.4 53.9,6.4 53.9,32.5 				"/>
				<polygon class="st2" points="65.9,71.1 65.9,83.5 84.3,65.4 84.3,53.1 				"/>
				<path class="st1" d="M65.4,71.1v-0.2l19.3-18.8v13.4l-19.3,19V71.1L65.4,71.1z M66.3,82.5l17.6-17.3V54.1L66.3,71.3V82.5
					L66.3,82.5z"/>
				<polygon class="st1" points="57.3,37.4 57.3,6.4 59.3,6.4 59.3,7.1 59.3,6.4 60.1,6.4 60.1,37.4 				"/>
				<polygon class="st2" points="53,7.1 51.9,7.1 51.9,31.9 53,31.9 				"/>
				<polygon class="st2" points="59.3,7.1 58.1,7.1 58.1,36.7 59.3,36.7 				"/>
				<polygon class="st1" points="63.5,40.6 63.5,6.4 65.5,6.4 65.5,7.1 65.5,6.4 66.3,6.4 66.3,40.6 				"/>
				<polygon class="st2" points="65.9,86.2 65.9,98.6 84.3,80.5 84.3,68.2 				"/>
				<path class="st1" d="M65.4,86.2V86l19.3-18.8v13.5l-19.3,19V86.2L65.4,86.2z M66.3,97.6l17.6-17.3V69.2L66.3,86.4V97.6
					L66.3,97.6z"/>
				<polygon class="st2" points="65.5,7.1 64.4,7.1 64.4,40 65.5,40 				"/>
				<polygon class="st1" points="69.8,38 69.8,6.4 71.8,6.4 71.8,7.1 71.8,6.4 72.6,6.4 72.6,38 				"/>
				<polygon class="st2" points="64,101.3 64,113.7 45.6,95.6 45.6,83.3 				"/>
				<path class="st1" d="M45.2,95.7V82.3L64.3,101l-0.3,0.3l0.3-0.3l0.1,0.1v13.6L45.2,95.7L45.2,95.7z M46,95.4l17.6,17.3v-11.2
					L46,84.3V95.4L46,95.4z"/>
				<polygon class="st1" points="76,33.2 76,6.4 78.1,6.4 78.1,7.1 78.1,6.4 78.9,6.4 78.9,33.2 				"/>
				<polygon class="st2" points="71.8,7.1 70.6,7.1 70.6,37.3 71.8,37.3 				"/>
				<polygon class="st1" points="81.9,28.6 81.9,6.4 83.9,6.4 83.9,7.1 83.9,6.4 84.7,6.4 84.7,28.6 				"/>
				<polygon class="st2" points="78.1,7.1 76.9,7.1 76.9,32.5 78.1,32.5 				"/>
				<polygon class="st2" points="83.9,7.1 82.7,7.1 82.7,28 83.9,28 				"/>
				<polygon class="st2" points="64,56 64,68.4 45.6,50.3 45.6,38 				"/>
				<path class="st1" d="M45.2,50.4V37l19.2,18.7L64,56l0.3-0.3l0.1,0.1v13.6L45.2,50.4L45.2,50.4z M46,50.1l17.6,17.3V56.2L46,39
					V50.1L46,50.1z"/>
				<polygon class="st2" points="64,71.1 64,83.5 45.6,65.4 45.6,53.1 				"/>
				<path class="st1" d="M45.2,65.6V52.1l19.2,18.7L64,71.1l0.3-0.3l0.1,0.1v13.6L45.2,65.6L45.2,65.6z M46,65.2l17.6,17.3V71.3
					L46,54.1V65.2L46,65.2z"/>
				<polygon class="st2" points="64,86.2 64,98.6 45.6,80.5 45.6,68.2 				"/>
				<path class="st1" d="M45.2,80.7V67.2l19.2,18.7L64,86.2l0.3-0.3l0.1,0.1v13.6L45.2,80.7L45.2,80.7z M46,80.3l17.6,17.3V86.4
					L46,69.2V80.3L46,80.3z"/>
				<polygon class="st1" points="45.2,28.5 45.2,6.4 47.2,6.4 47.2,7.1 47.2,6.4 48,6.4 48,28.5 				"/>
				<polygon class="st2" points="47.2,7.1 46,7.1 46,27.8 47.2,27.8 				"/>
				<polygon class="st2" points="65.9,40.9 65.9,53.3 84.3,35.2 84.3,22.9 				"/>
				<path class="st1" d="M65.4,40.9v-0.2l19.3-18.8v13.5l-19.3,19V40.9L65.4,40.9z M66.3,52.3L83.9,35V23.9L66.3,41.1V52.3
					L66.3,52.3z"/>
				<polygon class="st2" points="64,40.9 64,53.3 45.6,35.2 45.6,22.9 				"/>
				<path class="st1" d="M45.2,35.4V21.9l19.2,18.7L64,40.9l0.3-0.3l0.1,0.1v13.6L45.2,35.4L45.2,35.4z M46,35l17.6,17.3V41.1
					L46,23.9V35L46,35z"/>
			</g>
		</g>
	</g>
</g>
</svg>
