<?xml version="1.0" encoding="utf-8"?>
<!-- Generator: Adobe Illustrator 21.1.0, SVG Export Plug-In . SVG Version: 6.00 Build 0)  -->
<svg version="1.1" id="Слой_1" xmlns="http://www.w3.org/2000/svg" xmlns:xlink="http://www.w3.org/1999/xlink" x="0px" y="0px"
	 viewBox="0 0 122 40" style="enable-background:new 0 0 122 40;" xml:space="preserve">
<style type="text/css">
	.st0{fill-rule:evenodd;clip-rule:evenodd;fill:#1E398D;}
	.st1{fill-rule:evenodd;clip-rule:evenodd;fill:#FFFFFF;}
</style>
<g>
	<polygon class="st0" points="39.1,32.3 34.8,32.3 36.7,28.8 31.9,20.2 36.2,20.2 38.8,25.3 41.3,20.2 45.6,20.2 39.1,32.3 	"/>
	<path class="st0" d="M93.2,32.3h-5.4c-3,0-5.3-2.4-5.3-5.9c0-3.9,2.3-6.2,5.3-6.2h5.4v3h-3.5c-2.1,0-3.3,0.6-3.3,3.1
		c0,2.4,1.2,2.9,3.3,2.9h3.5V32.3L93.2,32.3z"/>
	<polygon class="st0" points="107.2,32.3 103.2,32.3 103.2,23.7 98.7,32.3 94,32.3 94,20.2 97.9,20.2 97.9,28.4 102.4,20.2 
		107.2,20.2 107.2,32.3 	"/>
	<polygon class="st0" points="56.1,32.3 61.2,20.2 65.6,20.2 69.9,30.2 74.1,20.2 78.4,20.2 83.5,32.3 79.4,32.3 76.3,23.6 
		73.1,32.3 70.7,32.3 69,32.3 66.6,32.3 65.6,29.8 61.2,29.8 60.3,32.3 56.1,32.3 	"/>
	<polygon class="st1" points="63.4,23.6 62.2,27 64.7,27 63.4,23.6 	"/>
	<path class="st0" d="M49.8,32.3h-3.9V20.2H54c4.1,0,4.1,3.4,4.1,4.1c0,0.8,0,4.4-4.1,4.4h-4.2V32.3L49.8,32.3z"/>
	<path class="st1" d="M49.8,25.7h2.8c0.4,0,1.6,0,1.6-1.3c0-1.3-1.1-1.3-1.6-1.3h-2.8V25.7L49.8,25.7z"/>
	<path class="st0" d="M119.5,20.2v3h-7.6v1.6h4c4.2,0,4.2,2.4,4.2,3.7c0,1.4,0,3.8-4.1,3.8h-8V20.2H119.5L119.5,20.2z"/>
	<path class="st1" d="M111.9,27.6v1.9h3.3c0.9,0,0.9-0.7,0.9-1c0-0.3,0-0.9-0.9-0.9H111.9L111.9,27.6z"/>
	<path class="st0" d="M14.3,14.2c0.3,0,0.6,0,0.9,0.1l-0.1-8.2h1c0,0-0.1,2.3,0.3,8.4c5.4,1.2,9.5,5.9,9.5,11.7
		c0,4.3-2.3,8-5.6,10.1c-0.1-0.1-0.2-0.3-0.3-0.4l0,0c-3.6-4.6-4.5-11.4-4.7-17.3c0.5,0.1,1,0.2,1.5,0.3c1,6.5,4,10.8,6.5,13.5
		c1.1-1.5,1.8-3.2,1.8-5.1c0-2.2-0.9-4.1-2.3-5.7c-1.4-1.6-3.4-2.8-5.8-3.4c-1-0.3-2.1-0.4-3.2-0.4c-1.1,0-2.1,0.1-3.2,0.4
		c-4.7,1.2-8.1,4.8-8.1,9.1c0,1.9,0.7,3.6,1.8,5.1c2.5-2.7,5.5-7,6.5-13.5c0.5-0.1,1-0.1,1.6-0.3c-0.3,5.9-1.1,12.7-4.7,17.3v-0.1
		c-0.1,0.2-0.3,0.4-0.4,0.5c-3.3-2.1-5.5-5.8-5.5-10.1c0-5.8,4-10.5,9.5-11.7c0.3-6.1,0.3-8.4,0.3-8.4h1l-0.1,8.2
		c0.3-0.1,0.6-0.1,0.8-0.1V2.1h1.1V14.2L14.3,14.2z M14.3,18.6c0.1,5.7,0.5,12.8,2.4,17.6c0.2,0.5,0.5,1.1,0.8,1.6
		c-1.2,0.3-2.5,0.6-3.7,0.6c-1.3,0-2.6-0.3-3.7-0.6c0.3-0.6,0.6-1.2,0.8-1.8c1.8-4.8,2.3-11.8,2.3-17.5c0.1,0,0.4,0,0.6,0
		C13.9,18.6,14.1,18.6,14.3,18.6L14.3,18.6z"/>
</g>
</svg>
